<mxfile host="Electron" modified="2024-04-23T09:59:05.757Z" agent="Mozilla/5.0 (Windows NT 10.0; WOW64) AppleWebKit/537.36 (KHTML, like Gecko) draw.io/24.2.5 Chrome/120.0.6099.109 Electron/28.1.0 Safari/537.36" etag="fZpfwSshSvm8LitvHbLf" version="24.2.5" type="device">
  <diagram name="Pagina-1" id="CHxmVuWa9hc1neVZdqtq">
    <mxGraphModel dx="1500" dy="745" grid="1" gridSize="10" guides="1" tooltips="1" connect="1" arrows="1" fold="1" page="1" pageScale="1" pageWidth="1169" pageHeight="827" math="0" shadow="0">
      <root>
        <mxCell id="0" />
        <mxCell id="1" parent="0" />
        <mxCell id="wQTYGuOmZ5z0KffUW01f-3" value="" style="rounded=0;whiteSpace=wrap;html=1;" vertex="1" parent="1">
          <mxGeometry x="6" y="232" width="40" height="40" as="geometry" />
        </mxCell>
        <mxCell id="wQTYGuOmZ5z0KffUW01f-4" value="" style="rounded=0;whiteSpace=wrap;html=1;" vertex="1" parent="1">
          <mxGeometry x="6" y="192" width="40" height="40" as="geometry" />
        </mxCell>
        <mxCell id="wQTYGuOmZ5z0KffUW01f-5" value="" style="rounded=0;whiteSpace=wrap;html=1;" vertex="1" parent="1">
          <mxGeometry x="6" y="152" width="40" height="40" as="geometry" />
        </mxCell>
        <mxCell id="wQTYGuOmZ5z0KffUW01f-6" value="" style="rounded=0;whiteSpace=wrap;html=1;" vertex="1" parent="1">
          <mxGeometry x="6" y="112" width="40" height="40" as="geometry" />
        </mxCell>
        <mxCell id="wQTYGuOmZ5z0KffUW01f-7" value="" style="rounded=0;whiteSpace=wrap;html=1;" vertex="1" parent="1">
          <mxGeometry x="6" y="72" width="40" height="40" as="geometry" />
        </mxCell>
        <mxCell id="wQTYGuOmZ5z0KffUW01f-8" value="" style="rounded=0;whiteSpace=wrap;html=1;" vertex="1" parent="1">
          <mxGeometry x="6" y="32" width="40" height="40" as="geometry" />
        </mxCell>
        <mxCell id="wQTYGuOmZ5z0KffUW01f-9" value="" style="rounded=0;whiteSpace=wrap;html=1;" vertex="1" parent="1">
          <mxGeometry x="46" y="232" width="40" height="40" as="geometry" />
        </mxCell>
        <mxCell id="wQTYGuOmZ5z0KffUW01f-10" value="" style="rounded=0;whiteSpace=wrap;html=1;" vertex="1" parent="1">
          <mxGeometry x="46" y="192" width="40" height="40" as="geometry" />
        </mxCell>
        <mxCell id="wQTYGuOmZ5z0KffUW01f-11" value="" style="rounded=0;whiteSpace=wrap;html=1;" vertex="1" parent="1">
          <mxGeometry x="46" y="152" width="40" height="40" as="geometry" />
        </mxCell>
        <mxCell id="wQTYGuOmZ5z0KffUW01f-12" value="" style="rounded=0;whiteSpace=wrap;html=1;" vertex="1" parent="1">
          <mxGeometry x="46" y="112" width="40" height="40" as="geometry" />
        </mxCell>
        <mxCell id="wQTYGuOmZ5z0KffUW01f-13" value="" style="rounded=0;whiteSpace=wrap;html=1;" vertex="1" parent="1">
          <mxGeometry x="46" y="72" width="40" height="40" as="geometry" />
        </mxCell>
        <mxCell id="wQTYGuOmZ5z0KffUW01f-14" value="" style="rounded=0;whiteSpace=wrap;html=1;" vertex="1" parent="1">
          <mxGeometry x="46" y="32" width="40" height="40" as="geometry" />
        </mxCell>
        <mxCell id="wQTYGuOmZ5z0KffUW01f-22" value="" style="rounded=0;whiteSpace=wrap;html=1;strokeColor=#F2F2F2;" vertex="1" parent="1">
          <mxGeometry x="86" y="232" width="40" height="40" as="geometry" />
        </mxCell>
        <mxCell id="wQTYGuOmZ5z0KffUW01f-23" value="" style="rounded=0;whiteSpace=wrap;html=1;strokeColor=#F2F2F2;" vertex="1" parent="1">
          <mxGeometry x="86" y="192" width="40" height="40" as="geometry" />
        </mxCell>
        <mxCell id="wQTYGuOmZ5z0KffUW01f-24" value="" style="rounded=0;whiteSpace=wrap;html=1;strokeColor=#F2F2F2;" vertex="1" parent="1">
          <mxGeometry x="86" y="152" width="40" height="40" as="geometry" />
        </mxCell>
        <mxCell id="wQTYGuOmZ5z0KffUW01f-25" value="" style="rounded=0;whiteSpace=wrap;html=1;strokeColor=#F2F2F2;" vertex="1" parent="1">
          <mxGeometry x="86" y="112" width="40" height="40" as="geometry" />
        </mxCell>
        <mxCell id="wQTYGuOmZ5z0KffUW01f-26" value="" style="rounded=0;whiteSpace=wrap;html=1;strokeColor=#F2F2F2;" vertex="1" parent="1">
          <mxGeometry x="86" y="72" width="40" height="40" as="geometry" />
        </mxCell>
        <mxCell id="wQTYGuOmZ5z0KffUW01f-27" value="" style="rounded=0;whiteSpace=wrap;html=1;strokeColor=#F2F2F2;" vertex="1" parent="1">
          <mxGeometry x="86" y="32" width="40" height="40" as="geometry" />
        </mxCell>
        <mxCell id="wQTYGuOmZ5z0KffUW01f-28" value="" style="rounded=0;whiteSpace=wrap;html=1;" vertex="1" parent="1">
          <mxGeometry x="126" y="232" width="40" height="40" as="geometry" />
        </mxCell>
        <mxCell id="wQTYGuOmZ5z0KffUW01f-29" value="" style="rounded=0;whiteSpace=wrap;html=1;" vertex="1" parent="1">
          <mxGeometry x="126" y="192" width="40" height="40" as="geometry" />
        </mxCell>
        <mxCell id="wQTYGuOmZ5z0KffUW01f-30" value="" style="rounded=0;whiteSpace=wrap;html=1;" vertex="1" parent="1">
          <mxGeometry x="126" y="152" width="40" height="40" as="geometry" />
        </mxCell>
        <mxCell id="wQTYGuOmZ5z0KffUW01f-31" value="" style="rounded=0;whiteSpace=wrap;html=1;" vertex="1" parent="1">
          <mxGeometry x="126" y="112" width="40" height="40" as="geometry" />
        </mxCell>
        <mxCell id="wQTYGuOmZ5z0KffUW01f-32" value="" style="rounded=0;whiteSpace=wrap;html=1;" vertex="1" parent="1">
          <mxGeometry x="126" y="72" width="40" height="40" as="geometry" />
        </mxCell>
        <mxCell id="wQTYGuOmZ5z0KffUW01f-33" value="" style="rounded=0;whiteSpace=wrap;html=1;" vertex="1" parent="1">
          <mxGeometry x="126" y="32" width="40" height="40" as="geometry" />
        </mxCell>
        <mxCell id="wQTYGuOmZ5z0KffUW01f-34" value="" style="rounded=0;whiteSpace=wrap;html=1;" vertex="1" parent="1">
          <mxGeometry x="166" y="232" width="40" height="40" as="geometry" />
        </mxCell>
        <mxCell id="wQTYGuOmZ5z0KffUW01f-35" value="" style="rounded=0;whiteSpace=wrap;html=1;" vertex="1" parent="1">
          <mxGeometry x="166" y="192" width="40" height="40" as="geometry" />
        </mxCell>
        <mxCell id="wQTYGuOmZ5z0KffUW01f-36" value="" style="rounded=0;whiteSpace=wrap;html=1;" vertex="1" parent="1">
          <mxGeometry x="166" y="152" width="40" height="40" as="geometry" />
        </mxCell>
        <mxCell id="wQTYGuOmZ5z0KffUW01f-37" value="" style="rounded=0;whiteSpace=wrap;html=1;" vertex="1" parent="1">
          <mxGeometry x="166" y="112" width="40" height="40" as="geometry" />
        </mxCell>
        <mxCell id="wQTYGuOmZ5z0KffUW01f-38" value="" style="rounded=0;whiteSpace=wrap;html=1;" vertex="1" parent="1">
          <mxGeometry x="166" y="72" width="40" height="40" as="geometry" />
        </mxCell>
        <mxCell id="wQTYGuOmZ5z0KffUW01f-39" value="" style="rounded=0;whiteSpace=wrap;html=1;" vertex="1" parent="1">
          <mxGeometry x="166" y="32" width="40" height="40" as="geometry" />
        </mxCell>
        <mxCell id="wQTYGuOmZ5z0KffUW01f-40" value="" style="rounded=0;whiteSpace=wrap;html=1;" vertex="1" parent="1">
          <mxGeometry x="206" y="232" width="40" height="40" as="geometry" />
        </mxCell>
        <mxCell id="wQTYGuOmZ5z0KffUW01f-41" value="" style="rounded=0;whiteSpace=wrap;html=1;" vertex="1" parent="1">
          <mxGeometry x="206" y="192" width="40" height="40" as="geometry" />
        </mxCell>
        <mxCell id="wQTYGuOmZ5z0KffUW01f-42" value="" style="rounded=0;whiteSpace=wrap;html=1;" vertex="1" parent="1">
          <mxGeometry x="206" y="152" width="40" height="40" as="geometry" />
        </mxCell>
        <mxCell id="wQTYGuOmZ5z0KffUW01f-43" value="" style="rounded=0;whiteSpace=wrap;html=1;" vertex="1" parent="1">
          <mxGeometry x="206" y="112" width="40" height="40" as="geometry" />
        </mxCell>
        <mxCell id="wQTYGuOmZ5z0KffUW01f-44" value="" style="rounded=0;whiteSpace=wrap;html=1;" vertex="1" parent="1">
          <mxGeometry x="206" y="72" width="40" height="40" as="geometry" />
        </mxCell>
        <mxCell id="wQTYGuOmZ5z0KffUW01f-45" value="" style="rounded=0;whiteSpace=wrap;html=1;" vertex="1" parent="1">
          <mxGeometry x="206" y="32" width="40" height="40" as="geometry" />
        </mxCell>
        <mxCell id="wQTYGuOmZ5z0KffUW01f-46" value="" style="rounded=0;whiteSpace=wrap;html=1;" vertex="1" parent="1">
          <mxGeometry x="246" y="232" width="40" height="40" as="geometry" />
        </mxCell>
        <mxCell id="wQTYGuOmZ5z0KffUW01f-47" value="" style="rounded=0;whiteSpace=wrap;html=1;" vertex="1" parent="1">
          <mxGeometry x="246" y="192" width="40" height="40" as="geometry" />
        </mxCell>
        <mxCell id="wQTYGuOmZ5z0KffUW01f-48" value="" style="rounded=0;whiteSpace=wrap;html=1;" vertex="1" parent="1">
          <mxGeometry x="246" y="152" width="40" height="40" as="geometry" />
        </mxCell>
        <mxCell id="wQTYGuOmZ5z0KffUW01f-49" value="" style="rounded=0;whiteSpace=wrap;html=1;" vertex="1" parent="1">
          <mxGeometry x="246" y="112" width="40" height="40" as="geometry" />
        </mxCell>
        <mxCell id="wQTYGuOmZ5z0KffUW01f-50" value="" style="rounded=0;whiteSpace=wrap;html=1;" vertex="1" parent="1">
          <mxGeometry x="246" y="72" width="40" height="40" as="geometry" />
        </mxCell>
        <mxCell id="wQTYGuOmZ5z0KffUW01f-51" value="" style="rounded=0;whiteSpace=wrap;html=1;" vertex="1" parent="1">
          <mxGeometry x="246" y="32" width="40" height="40" as="geometry" />
        </mxCell>
        <mxCell id="wQTYGuOmZ5z0KffUW01f-52" value="O" style="rounded=0;whiteSpace=wrap;html=1;" vertex="1" parent="1">
          <mxGeometry x="286" y="232" width="40" height="40" as="geometry" />
        </mxCell>
        <mxCell id="wQTYGuOmZ5z0KffUW01f-53" value="O" style="rounded=0;whiteSpace=wrap;html=1;" vertex="1" parent="1">
          <mxGeometry x="286" y="192" width="40" height="40" as="geometry" />
        </mxCell>
        <mxCell id="wQTYGuOmZ5z0KffUW01f-54" value="" style="rounded=0;whiteSpace=wrap;html=1;" vertex="1" parent="1">
          <mxGeometry x="286" y="152" width="40" height="40" as="geometry" />
        </mxCell>
        <mxCell id="wQTYGuOmZ5z0KffUW01f-55" value="" style="rounded=0;whiteSpace=wrap;html=1;" vertex="1" parent="1">
          <mxGeometry x="286" y="112" width="40" height="40" as="geometry" />
        </mxCell>
        <mxCell id="wQTYGuOmZ5z0KffUW01f-56" value="" style="rounded=0;whiteSpace=wrap;html=1;" vertex="1" parent="1">
          <mxGeometry x="286" y="72" width="40" height="40" as="geometry" />
        </mxCell>
        <mxCell id="wQTYGuOmZ5z0KffUW01f-57" value="O" style="rounded=0;whiteSpace=wrap;html=1;" vertex="1" parent="1">
          <mxGeometry x="286" y="32" width="40" height="40" as="geometry" />
        </mxCell>
        <mxCell id="wQTYGuOmZ5z0KffUW01f-58" value="" style="rounded=0;whiteSpace=wrap;html=1;" vertex="1" parent="1">
          <mxGeometry x="326" y="232" width="40" height="40" as="geometry" />
        </mxCell>
        <mxCell id="wQTYGuOmZ5z0KffUW01f-59" value="" style="rounded=0;whiteSpace=wrap;html=1;" vertex="1" parent="1">
          <mxGeometry x="326" y="192" width="40" height="40" as="geometry" />
        </mxCell>
        <mxCell id="wQTYGuOmZ5z0KffUW01f-60" value="O" style="rounded=0;whiteSpace=wrap;html=1;" vertex="1" parent="1">
          <mxGeometry x="326" y="152" width="40" height="40" as="geometry" />
        </mxCell>
        <mxCell id="wQTYGuOmZ5z0KffUW01f-61" value="O" style="rounded=0;whiteSpace=wrap;html=1;" vertex="1" parent="1">
          <mxGeometry x="326" y="112" width="40" height="40" as="geometry" />
        </mxCell>
        <mxCell id="wQTYGuOmZ5z0KffUW01f-62" value="" style="rounded=0;whiteSpace=wrap;html=1;" vertex="1" parent="1">
          <mxGeometry x="326" y="72" width="40" height="40" as="geometry" />
        </mxCell>
        <mxCell id="wQTYGuOmZ5z0KffUW01f-63" value="" style="rounded=0;whiteSpace=wrap;html=1;" vertex="1" parent="1">
          <mxGeometry x="326" y="32" width="40" height="40" as="geometry" />
        </mxCell>
        <mxCell id="wQTYGuOmZ5z0KffUW01f-64" value="O" style="rounded=0;whiteSpace=wrap;html=1;" vertex="1" parent="1">
          <mxGeometry x="366" y="232" width="40" height="40" as="geometry" />
        </mxCell>
        <mxCell id="wQTYGuOmZ5z0KffUW01f-65" value="O" style="rounded=0;whiteSpace=wrap;html=1;" vertex="1" parent="1">
          <mxGeometry x="366" y="192" width="40" height="40" as="geometry" />
        </mxCell>
        <mxCell id="wQTYGuOmZ5z0KffUW01f-66" value="O" style="rounded=0;whiteSpace=wrap;html=1;" vertex="1" parent="1">
          <mxGeometry x="366" y="152" width="40" height="40" as="geometry" />
        </mxCell>
        <mxCell id="wQTYGuOmZ5z0KffUW01f-67" value="O" style="rounded=0;whiteSpace=wrap;html=1;" vertex="1" parent="1">
          <mxGeometry x="366" y="112" width="40" height="40" as="geometry" />
        </mxCell>
        <mxCell id="wQTYGuOmZ5z0KffUW01f-68" value="O" style="rounded=0;whiteSpace=wrap;html=1;" vertex="1" parent="1">
          <mxGeometry x="366" y="72" width="40" height="40" as="geometry" />
        </mxCell>
        <mxCell id="wQTYGuOmZ5z0KffUW01f-69" value="O" style="rounded=0;whiteSpace=wrap;html=1;" vertex="1" parent="1">
          <mxGeometry x="366" y="32" width="40" height="40" as="geometry" />
        </mxCell>
        <mxCell id="wQTYGuOmZ5z0KffUW01f-70" value="" style="rounded=0;whiteSpace=wrap;html=1;" vertex="1" parent="1">
          <mxGeometry x="406" y="232" width="40" height="40" as="geometry" />
        </mxCell>
        <mxCell id="wQTYGuOmZ5z0KffUW01f-71" value="" style="rounded=0;whiteSpace=wrap;html=1;" vertex="1" parent="1">
          <mxGeometry x="406" y="192" width="40" height="40" as="geometry" />
        </mxCell>
        <mxCell id="wQTYGuOmZ5z0KffUW01f-72" value="" style="rounded=0;whiteSpace=wrap;html=1;" vertex="1" parent="1">
          <mxGeometry x="406" y="152" width="40" height="40" as="geometry" />
        </mxCell>
        <mxCell id="wQTYGuOmZ5z0KffUW01f-73" value="" style="rounded=0;whiteSpace=wrap;html=1;" vertex="1" parent="1">
          <mxGeometry x="406" y="112" width="40" height="40" as="geometry" />
        </mxCell>
        <mxCell id="wQTYGuOmZ5z0KffUW01f-74" value="" style="rounded=0;whiteSpace=wrap;html=1;" vertex="1" parent="1">
          <mxGeometry x="406" y="72" width="40" height="40" as="geometry" />
        </mxCell>
        <mxCell id="wQTYGuOmZ5z0KffUW01f-75" value="" style="rounded=0;whiteSpace=wrap;html=1;" vertex="1" parent="1">
          <mxGeometry x="406" y="32" width="40" height="40" as="geometry" />
        </mxCell>
        <mxCell id="wQTYGuOmZ5z0KffUW01f-76" value="O" style="rounded=0;whiteSpace=wrap;html=1;" vertex="1" parent="1">
          <mxGeometry x="446" y="232" width="40" height="40" as="geometry" />
        </mxCell>
        <mxCell id="wQTYGuOmZ5z0KffUW01f-77" value="O" style="rounded=0;whiteSpace=wrap;html=1;" vertex="1" parent="1">
          <mxGeometry x="446" y="192" width="40" height="40" as="geometry" />
        </mxCell>
        <mxCell id="wQTYGuOmZ5z0KffUW01f-78" value="O" style="rounded=0;whiteSpace=wrap;html=1;" vertex="1" parent="1">
          <mxGeometry x="446" y="152" width="40" height="40" as="geometry" />
        </mxCell>
        <mxCell id="wQTYGuOmZ5z0KffUW01f-79" value="O" style="rounded=0;whiteSpace=wrap;html=1;" vertex="1" parent="1">
          <mxGeometry x="446" y="112" width="40" height="40" as="geometry" />
        </mxCell>
        <mxCell id="wQTYGuOmZ5z0KffUW01f-80" value="O" style="rounded=0;whiteSpace=wrap;html=1;" vertex="1" parent="1">
          <mxGeometry x="446" y="72" width="40" height="40" as="geometry" />
        </mxCell>
        <mxCell id="wQTYGuOmZ5z0KffUW01f-81" value="O" style="rounded=0;whiteSpace=wrap;html=1;" vertex="1" parent="1">
          <mxGeometry x="446" y="32" width="40" height="40" as="geometry" />
        </mxCell>
        <mxCell id="wQTYGuOmZ5z0KffUW01f-82" value="" style="rounded=0;whiteSpace=wrap;html=1;" vertex="1" parent="1">
          <mxGeometry x="486" y="232" width="40" height="40" as="geometry" />
        </mxCell>
        <mxCell id="wQTYGuOmZ5z0KffUW01f-83" value="" style="rounded=0;whiteSpace=wrap;html=1;" vertex="1" parent="1">
          <mxGeometry x="486" y="192" width="40" height="40" as="geometry" />
        </mxCell>
        <mxCell id="wQTYGuOmZ5z0KffUW01f-84" value="" style="rounded=0;whiteSpace=wrap;html=1;" vertex="1" parent="1">
          <mxGeometry x="486" y="152" width="40" height="40" as="geometry" />
        </mxCell>
        <mxCell id="wQTYGuOmZ5z0KffUW01f-85" value="" style="rounded=0;whiteSpace=wrap;html=1;" vertex="1" parent="1">
          <mxGeometry x="486" y="112" width="40" height="40" as="geometry" />
        </mxCell>
        <mxCell id="wQTYGuOmZ5z0KffUW01f-86" value="" style="rounded=0;whiteSpace=wrap;html=1;" vertex="1" parent="1">
          <mxGeometry x="486" y="72" width="40" height="40" as="geometry" />
        </mxCell>
        <mxCell id="wQTYGuOmZ5z0KffUW01f-87" value="" style="rounded=0;whiteSpace=wrap;html=1;" vertex="1" parent="1">
          <mxGeometry x="486" y="32" width="40" height="40" as="geometry" />
        </mxCell>
        <mxCell id="wQTYGuOmZ5z0KffUW01f-108" value="" style="rounded=0;whiteSpace=wrap;html=1;" vertex="1" parent="1">
          <mxGeometry x="6" y="504" width="40" height="40" as="geometry" />
        </mxCell>
        <mxCell id="wQTYGuOmZ5z0KffUW01f-109" value="" style="rounded=0;whiteSpace=wrap;html=1;" vertex="1" parent="1">
          <mxGeometry x="6" y="464" width="40" height="40" as="geometry" />
        </mxCell>
        <mxCell id="wQTYGuOmZ5z0KffUW01f-110" value="" style="rounded=0;whiteSpace=wrap;html=1;" vertex="1" parent="1">
          <mxGeometry x="6" y="424" width="40" height="40" as="geometry" />
        </mxCell>
        <mxCell id="wQTYGuOmZ5z0KffUW01f-111" value="" style="rounded=0;whiteSpace=wrap;html=1;" vertex="1" parent="1">
          <mxGeometry x="6" y="384" width="40" height="40" as="geometry" />
        </mxCell>
        <mxCell id="wQTYGuOmZ5z0KffUW01f-112" value="" style="rounded=0;whiteSpace=wrap;html=1;" vertex="1" parent="1">
          <mxGeometry x="6" y="344" width="40" height="40" as="geometry" />
        </mxCell>
        <mxCell id="wQTYGuOmZ5z0KffUW01f-113" value="" style="rounded=0;whiteSpace=wrap;html=1;" vertex="1" parent="1">
          <mxGeometry x="6" y="304" width="40" height="40" as="geometry" />
        </mxCell>
        <mxCell id="wQTYGuOmZ5z0KffUW01f-114" value="" style="rounded=0;whiteSpace=wrap;html=1;" vertex="1" parent="1">
          <mxGeometry x="46" y="504" width="40" height="40" as="geometry" />
        </mxCell>
        <mxCell id="wQTYGuOmZ5z0KffUW01f-115" value="" style="rounded=0;whiteSpace=wrap;html=1;" vertex="1" parent="1">
          <mxGeometry x="46" y="464" width="40" height="40" as="geometry" />
        </mxCell>
        <mxCell id="wQTYGuOmZ5z0KffUW01f-116" value="" style="rounded=0;whiteSpace=wrap;html=1;" vertex="1" parent="1">
          <mxGeometry x="46" y="424" width="40" height="40" as="geometry" />
        </mxCell>
        <mxCell id="wQTYGuOmZ5z0KffUW01f-117" value="" style="rounded=0;whiteSpace=wrap;html=1;" vertex="1" parent="1">
          <mxGeometry x="46" y="384" width="40" height="40" as="geometry" />
        </mxCell>
        <mxCell id="wQTYGuOmZ5z0KffUW01f-118" value="" style="rounded=0;whiteSpace=wrap;html=1;" vertex="1" parent="1">
          <mxGeometry x="46" y="344" width="40" height="40" as="geometry" />
        </mxCell>
        <mxCell id="wQTYGuOmZ5z0KffUW01f-119" value="" style="rounded=0;whiteSpace=wrap;html=1;" vertex="1" parent="1">
          <mxGeometry x="46" y="304" width="40" height="40" as="geometry" />
        </mxCell>
        <mxCell id="wQTYGuOmZ5z0KffUW01f-120" value="" style="rounded=0;whiteSpace=wrap;html=1;" vertex="1" parent="1">
          <mxGeometry x="86" y="504" width="40" height="40" as="geometry" />
        </mxCell>
        <mxCell id="wQTYGuOmZ5z0KffUW01f-121" value="" style="rounded=0;whiteSpace=wrap;html=1;" vertex="1" parent="1">
          <mxGeometry x="86" y="464" width="40" height="40" as="geometry" />
        </mxCell>
        <mxCell id="wQTYGuOmZ5z0KffUW01f-122" value="" style="rounded=0;whiteSpace=wrap;html=1;" vertex="1" parent="1">
          <mxGeometry x="86" y="424" width="40" height="40" as="geometry" />
        </mxCell>
        <mxCell id="wQTYGuOmZ5z0KffUW01f-123" value="" style="rounded=0;whiteSpace=wrap;html=1;" vertex="1" parent="1">
          <mxGeometry x="86" y="384" width="40" height="40" as="geometry" />
        </mxCell>
        <mxCell id="wQTYGuOmZ5z0KffUW01f-124" value="" style="rounded=0;whiteSpace=wrap;html=1;" vertex="1" parent="1">
          <mxGeometry x="86" y="344" width="40" height="40" as="geometry" />
        </mxCell>
        <mxCell id="wQTYGuOmZ5z0KffUW01f-125" value="" style="rounded=0;whiteSpace=wrap;html=1;" vertex="1" parent="1">
          <mxGeometry x="86" y="304" width="40" height="40" as="geometry" />
        </mxCell>
        <mxCell id="wQTYGuOmZ5z0KffUW01f-126" value="" style="rounded=0;whiteSpace=wrap;html=1;" vertex="1" parent="1">
          <mxGeometry x="126" y="504" width="40" height="40" as="geometry" />
        </mxCell>
        <mxCell id="wQTYGuOmZ5z0KffUW01f-127" value="" style="rounded=0;whiteSpace=wrap;html=1;" vertex="1" parent="1">
          <mxGeometry x="126" y="464" width="40" height="40" as="geometry" />
        </mxCell>
        <mxCell id="wQTYGuOmZ5z0KffUW01f-128" value="" style="rounded=0;whiteSpace=wrap;html=1;" vertex="1" parent="1">
          <mxGeometry x="126" y="424" width="40" height="40" as="geometry" />
        </mxCell>
        <mxCell id="wQTYGuOmZ5z0KffUW01f-129" value="" style="rounded=0;whiteSpace=wrap;html=1;" vertex="1" parent="1">
          <mxGeometry x="126" y="384" width="40" height="40" as="geometry" />
        </mxCell>
        <mxCell id="wQTYGuOmZ5z0KffUW01f-130" value="" style="rounded=0;whiteSpace=wrap;html=1;" vertex="1" parent="1">
          <mxGeometry x="126" y="344" width="40" height="40" as="geometry" />
        </mxCell>
        <mxCell id="wQTYGuOmZ5z0KffUW01f-131" value="" style="rounded=0;whiteSpace=wrap;html=1;" vertex="1" parent="1">
          <mxGeometry x="126" y="304" width="40" height="40" as="geometry" />
        </mxCell>
        <mxCell id="wQTYGuOmZ5z0KffUW01f-132" value="" style="rounded=0;whiteSpace=wrap;html=1;" vertex="1" parent="1">
          <mxGeometry x="166" y="504" width="40" height="40" as="geometry" />
        </mxCell>
        <mxCell id="wQTYGuOmZ5z0KffUW01f-133" value="" style="rounded=0;whiteSpace=wrap;html=1;" vertex="1" parent="1">
          <mxGeometry x="166" y="464" width="40" height="40" as="geometry" />
        </mxCell>
        <mxCell id="wQTYGuOmZ5z0KffUW01f-134" value="" style="rounded=0;whiteSpace=wrap;html=1;" vertex="1" parent="1">
          <mxGeometry x="166" y="424" width="40" height="40" as="geometry" />
        </mxCell>
        <mxCell id="wQTYGuOmZ5z0KffUW01f-135" value="" style="rounded=0;whiteSpace=wrap;html=1;" vertex="1" parent="1">
          <mxGeometry x="166" y="384" width="40" height="40" as="geometry" />
        </mxCell>
        <mxCell id="wQTYGuOmZ5z0KffUW01f-136" value="" style="rounded=0;whiteSpace=wrap;html=1;" vertex="1" parent="1">
          <mxGeometry x="166" y="344" width="40" height="40" as="geometry" />
        </mxCell>
        <mxCell id="wQTYGuOmZ5z0KffUW01f-137" value="" style="rounded=0;whiteSpace=wrap;html=1;" vertex="1" parent="1">
          <mxGeometry x="166" y="304" width="40" height="40" as="geometry" />
        </mxCell>
        <mxCell id="wQTYGuOmZ5z0KffUW01f-138" value="" style="rounded=0;whiteSpace=wrap;html=1;" vertex="1" parent="1">
          <mxGeometry x="206" y="504" width="40" height="40" as="geometry" />
        </mxCell>
        <mxCell id="wQTYGuOmZ5z0KffUW01f-139" value="" style="rounded=0;whiteSpace=wrap;html=1;" vertex="1" parent="1">
          <mxGeometry x="206" y="464" width="40" height="40" as="geometry" />
        </mxCell>
        <mxCell id="wQTYGuOmZ5z0KffUW01f-140" value="" style="rounded=0;whiteSpace=wrap;html=1;" vertex="1" parent="1">
          <mxGeometry x="206" y="424" width="40" height="40" as="geometry" />
        </mxCell>
        <mxCell id="wQTYGuOmZ5z0KffUW01f-141" value="" style="rounded=0;whiteSpace=wrap;html=1;" vertex="1" parent="1">
          <mxGeometry x="206" y="384" width="40" height="40" as="geometry" />
        </mxCell>
        <mxCell id="wQTYGuOmZ5z0KffUW01f-142" value="" style="rounded=0;whiteSpace=wrap;html=1;" vertex="1" parent="1">
          <mxGeometry x="206" y="344" width="40" height="40" as="geometry" />
        </mxCell>
        <mxCell id="wQTYGuOmZ5z0KffUW01f-143" value="" style="rounded=0;whiteSpace=wrap;html=1;" vertex="1" parent="1">
          <mxGeometry x="206" y="304" width="40" height="40" as="geometry" />
        </mxCell>
        <mxCell id="wQTYGuOmZ5z0KffUW01f-144" value="" style="rounded=0;whiteSpace=wrap;html=1;" vertex="1" parent="1">
          <mxGeometry x="246" y="504" width="40" height="40" as="geometry" />
        </mxCell>
        <mxCell id="wQTYGuOmZ5z0KffUW01f-145" value="" style="rounded=0;whiteSpace=wrap;html=1;" vertex="1" parent="1">
          <mxGeometry x="246" y="464" width="40" height="40" as="geometry" />
        </mxCell>
        <mxCell id="wQTYGuOmZ5z0KffUW01f-146" value="" style="rounded=0;whiteSpace=wrap;html=1;" vertex="1" parent="1">
          <mxGeometry x="246" y="424" width="40" height="40" as="geometry" />
        </mxCell>
        <mxCell id="wQTYGuOmZ5z0KffUW01f-147" value="" style="rounded=0;whiteSpace=wrap;html=1;" vertex="1" parent="1">
          <mxGeometry x="246" y="384" width="40" height="40" as="geometry" />
        </mxCell>
        <mxCell id="wQTYGuOmZ5z0KffUW01f-148" value="" style="rounded=0;whiteSpace=wrap;html=1;" vertex="1" parent="1">
          <mxGeometry x="246" y="344" width="40" height="40" as="geometry" />
        </mxCell>
        <mxCell id="wQTYGuOmZ5z0KffUW01f-149" value="" style="rounded=0;whiteSpace=wrap;html=1;" vertex="1" parent="1">
          <mxGeometry x="246" y="304" width="40" height="40" as="geometry" />
        </mxCell>
        <mxCell id="wQTYGuOmZ5z0KffUW01f-150" value="O" style="rounded=0;whiteSpace=wrap;html=1;" vertex="1" parent="1">
          <mxGeometry x="286" y="504" width="40" height="40" as="geometry" />
        </mxCell>
        <mxCell id="wQTYGuOmZ5z0KffUW01f-151" value="O" style="rounded=0;whiteSpace=wrap;html=1;" vertex="1" parent="1">
          <mxGeometry x="286" y="464" width="40" height="40" as="geometry" />
        </mxCell>
        <mxCell id="wQTYGuOmZ5z0KffUW01f-152" value="O" style="rounded=0;whiteSpace=wrap;html=1;" vertex="1" parent="1">
          <mxGeometry x="286" y="424" width="40" height="40" as="geometry" />
        </mxCell>
        <mxCell id="wQTYGuOmZ5z0KffUW01f-153" value="O" style="rounded=0;whiteSpace=wrap;html=1;" vertex="1" parent="1">
          <mxGeometry x="286" y="384" width="40" height="40" as="geometry" />
        </mxCell>
        <mxCell id="wQTYGuOmZ5z0KffUW01f-154" value="O" style="rounded=0;whiteSpace=wrap;html=1;" vertex="1" parent="1">
          <mxGeometry x="286" y="344" width="40" height="40" as="geometry" />
        </mxCell>
        <mxCell id="wQTYGuOmZ5z0KffUW01f-155" value="O" style="rounded=0;whiteSpace=wrap;html=1;" vertex="1" parent="1">
          <mxGeometry x="286" y="304" width="40" height="40" as="geometry" />
        </mxCell>
        <mxCell id="wQTYGuOmZ5z0KffUW01f-156" value="" style="rounded=0;whiteSpace=wrap;html=1;" vertex="1" parent="1">
          <mxGeometry x="326" y="504" width="40" height="40" as="geometry" />
        </mxCell>
        <mxCell id="wQTYGuOmZ5z0KffUW01f-157" value="" style="rounded=0;whiteSpace=wrap;html=1;" vertex="1" parent="1">
          <mxGeometry x="326" y="464" width="40" height="40" as="geometry" />
        </mxCell>
        <mxCell id="wQTYGuOmZ5z0KffUW01f-158" value="" style="rounded=0;whiteSpace=wrap;html=1;" vertex="1" parent="1">
          <mxGeometry x="326" y="424" width="40" height="40" as="geometry" />
        </mxCell>
        <mxCell id="wQTYGuOmZ5z0KffUW01f-160" value="" style="rounded=0;whiteSpace=wrap;html=1;" vertex="1" parent="1">
          <mxGeometry x="326" y="344" width="40" height="40" as="geometry" />
        </mxCell>
        <mxCell id="wQTYGuOmZ5z0KffUW01f-161" value="" style="rounded=0;whiteSpace=wrap;html=1;" vertex="1" parent="1">
          <mxGeometry x="326" y="304" width="40" height="40" as="geometry" />
        </mxCell>
        <mxCell id="wQTYGuOmZ5z0KffUW01f-162" value="O" style="rounded=0;whiteSpace=wrap;html=1;" vertex="1" parent="1">
          <mxGeometry x="366" y="504" width="40" height="40" as="geometry" />
        </mxCell>
        <mxCell id="wQTYGuOmZ5z0KffUW01f-163" value="O" style="rounded=0;whiteSpace=wrap;html=1;" vertex="1" parent="1">
          <mxGeometry x="366" y="464" width="40" height="40" as="geometry" />
        </mxCell>
        <mxCell id="wQTYGuOmZ5z0KffUW01f-164" value="O" style="rounded=0;whiteSpace=wrap;html=1;" vertex="1" parent="1">
          <mxGeometry x="366" y="424" width="40" height="40" as="geometry" />
        </mxCell>
        <mxCell id="wQTYGuOmZ5z0KffUW01f-165" value="O" style="rounded=0;whiteSpace=wrap;html=1;" vertex="1" parent="1">
          <mxGeometry x="366" y="384" width="40" height="40" as="geometry" />
        </mxCell>
        <mxCell id="wQTYGuOmZ5z0KffUW01f-167" value="" style="rounded=0;whiteSpace=wrap;html=1;" vertex="1" parent="1">
          <mxGeometry x="366" y="304" width="40" height="40" as="geometry" />
        </mxCell>
        <mxCell id="wQTYGuOmZ5z0KffUW01f-168" value="O" style="rounded=0;whiteSpace=wrap;html=1;" vertex="1" parent="1">
          <mxGeometry x="406" y="504" width="40" height="40" as="geometry" />
        </mxCell>
        <mxCell id="wQTYGuOmZ5z0KffUW01f-169" value="" style="rounded=0;whiteSpace=wrap;html=1;" vertex="1" parent="1">
          <mxGeometry x="406" y="464" width="40" height="40" as="geometry" />
        </mxCell>
        <mxCell id="wQTYGuOmZ5z0KffUW01f-170" value="" style="rounded=0;whiteSpace=wrap;html=1;" vertex="1" parent="1">
          <mxGeometry x="406" y="424" width="40" height="40" as="geometry" />
        </mxCell>
        <mxCell id="wQTYGuOmZ5z0KffUW01f-171" value="" style="rounded=0;whiteSpace=wrap;html=1;" vertex="1" parent="1">
          <mxGeometry x="406" y="384" width="40" height="40" as="geometry" />
        </mxCell>
        <mxCell id="wQTYGuOmZ5z0KffUW01f-172" value="O" style="rounded=0;whiteSpace=wrap;html=1;" vertex="1" parent="1">
          <mxGeometry x="406" y="344" width="40" height="40" as="geometry" />
        </mxCell>
        <mxCell id="wQTYGuOmZ5z0KffUW01f-173" value="O" style="rounded=0;whiteSpace=wrap;html=1;" vertex="1" parent="1">
          <mxGeometry x="406" y="304" width="40" height="40" as="geometry" />
        </mxCell>
        <mxCell id="wQTYGuOmZ5z0KffUW01f-174" value="" style="rounded=0;whiteSpace=wrap;html=1;" vertex="1" parent="1">
          <mxGeometry x="446" y="504" width="40" height="40" as="geometry" />
        </mxCell>
        <mxCell id="wQTYGuOmZ5z0KffUW01f-175" value="O" style="rounded=0;whiteSpace=wrap;html=1;" vertex="1" parent="1">
          <mxGeometry x="446" y="464" width="40" height="40" as="geometry" />
        </mxCell>
        <mxCell id="wQTYGuOmZ5z0KffUW01f-176" value="O" style="rounded=0;whiteSpace=wrap;html=1;" vertex="1" parent="1">
          <mxGeometry x="446" y="424" width="40" height="40" as="geometry" />
        </mxCell>
        <mxCell id="wQTYGuOmZ5z0KffUW01f-177" value="" style="rounded=0;whiteSpace=wrap;html=1;" vertex="1" parent="1">
          <mxGeometry x="446" y="384" width="40" height="40" as="geometry" />
        </mxCell>
        <mxCell id="wQTYGuOmZ5z0KffUW01f-178" value="O" style="rounded=0;whiteSpace=wrap;html=1;" vertex="1" parent="1">
          <mxGeometry x="446" y="344" width="40" height="40" as="geometry" />
        </mxCell>
        <mxCell id="wQTYGuOmZ5z0KffUW01f-179" value="O" style="rounded=0;whiteSpace=wrap;html=1;" vertex="1" parent="1">
          <mxGeometry x="446" y="304" width="40" height="40" as="geometry" />
        </mxCell>
        <mxCell id="wQTYGuOmZ5z0KffUW01f-180" value="" style="rounded=0;whiteSpace=wrap;html=1;" vertex="1" parent="1">
          <mxGeometry x="486" y="504" width="40" height="40" as="geometry" />
        </mxCell>
        <mxCell id="wQTYGuOmZ5z0KffUW01f-181" value="" style="rounded=0;whiteSpace=wrap;html=1;" vertex="1" parent="1">
          <mxGeometry x="486" y="464" width="40" height="40" as="geometry" />
        </mxCell>
        <mxCell id="wQTYGuOmZ5z0KffUW01f-182" value="" style="rounded=0;whiteSpace=wrap;html=1;" vertex="1" parent="1">
          <mxGeometry x="486" y="424" width="40" height="40" as="geometry" />
        </mxCell>
        <mxCell id="wQTYGuOmZ5z0KffUW01f-183" value="" style="rounded=0;whiteSpace=wrap;html=1;" vertex="1" parent="1">
          <mxGeometry x="486" y="384" width="40" height="40" as="geometry" />
        </mxCell>
        <mxCell id="wQTYGuOmZ5z0KffUW01f-184" value="" style="rounded=0;whiteSpace=wrap;html=1;" vertex="1" parent="1">
          <mxGeometry x="486" y="344" width="40" height="40" as="geometry" />
        </mxCell>
        <mxCell id="wQTYGuOmZ5z0KffUW01f-185" value="" style="rounded=0;whiteSpace=wrap;html=1;" vertex="1" parent="1">
          <mxGeometry x="486" y="304" width="40" height="40" as="geometry" />
        </mxCell>
        <mxCell id="wQTYGuOmZ5z0KffUW01f-203" value="" style="rounded=0;whiteSpace=wrap;html=1;" vertex="1" parent="1">
          <mxGeometry x="366" y="344" width="40" height="40" as="geometry" />
        </mxCell>
        <mxCell id="wQTYGuOmZ5z0KffUW01f-204" value="C IONICO (MAGGIORE)&amp;nbsp;" style="text;html=1;align=center;verticalAlign=middle;whiteSpace=wrap;rounded=0;" vertex="1" parent="1">
          <mxGeometry x="6" y="3" width="524" height="30" as="geometry" />
        </mxCell>
        <mxCell id="wQTYGuOmZ5z0KffUW01f-207" value="C DORICO (3b 7b)&amp;nbsp; -&amp;gt; Bb Maggiore (II)" style="text;html=1;align=center;verticalAlign=middle;whiteSpace=wrap;rounded=0;" vertex="1" parent="1">
          <mxGeometry x="6" y="274" width="524" height="30" as="geometry" />
        </mxCell>
        <mxCell id="wQTYGuOmZ5z0KffUW01f-208" value="" style="rounded=0;whiteSpace=wrap;html=1;" vertex="1" parent="1">
          <mxGeometry x="6" y="777" width="40" height="40" as="geometry" />
        </mxCell>
        <mxCell id="wQTYGuOmZ5z0KffUW01f-209" value="" style="rounded=0;whiteSpace=wrap;html=1;" vertex="1" parent="1">
          <mxGeometry x="6" y="737" width="40" height="40" as="geometry" />
        </mxCell>
        <mxCell id="wQTYGuOmZ5z0KffUW01f-210" value="" style="rounded=0;whiteSpace=wrap;html=1;" vertex="1" parent="1">
          <mxGeometry x="6" y="697" width="40" height="40" as="geometry" />
        </mxCell>
        <mxCell id="wQTYGuOmZ5z0KffUW01f-211" value="" style="rounded=0;whiteSpace=wrap;html=1;" vertex="1" parent="1">
          <mxGeometry x="6" y="657" width="40" height="40" as="geometry" />
        </mxCell>
        <mxCell id="wQTYGuOmZ5z0KffUW01f-212" value="" style="rounded=0;whiteSpace=wrap;html=1;" vertex="1" parent="1">
          <mxGeometry x="6" y="617" width="40" height="40" as="geometry" />
        </mxCell>
        <mxCell id="wQTYGuOmZ5z0KffUW01f-213" value="" style="rounded=0;whiteSpace=wrap;html=1;" vertex="1" parent="1">
          <mxGeometry x="6" y="577" width="40" height="40" as="geometry" />
        </mxCell>
        <mxCell id="wQTYGuOmZ5z0KffUW01f-214" value="" style="rounded=0;whiteSpace=wrap;html=1;" vertex="1" parent="1">
          <mxGeometry x="46" y="777" width="40" height="40" as="geometry" />
        </mxCell>
        <mxCell id="wQTYGuOmZ5z0KffUW01f-215" value="" style="rounded=0;whiteSpace=wrap;html=1;" vertex="1" parent="1">
          <mxGeometry x="46" y="737" width="40" height="40" as="geometry" />
        </mxCell>
        <mxCell id="wQTYGuOmZ5z0KffUW01f-216" value="" style="rounded=0;whiteSpace=wrap;html=1;" vertex="1" parent="1">
          <mxGeometry x="46" y="697" width="40" height="40" as="geometry" />
        </mxCell>
        <mxCell id="wQTYGuOmZ5z0KffUW01f-217" value="" style="rounded=0;whiteSpace=wrap;html=1;" vertex="1" parent="1">
          <mxGeometry x="46" y="657" width="40" height="40" as="geometry" />
        </mxCell>
        <mxCell id="wQTYGuOmZ5z0KffUW01f-218" value="" style="rounded=0;whiteSpace=wrap;html=1;" vertex="1" parent="1">
          <mxGeometry x="46" y="617" width="40" height="40" as="geometry" />
        </mxCell>
        <mxCell id="wQTYGuOmZ5z0KffUW01f-219" value="" style="rounded=0;whiteSpace=wrap;html=1;" vertex="1" parent="1">
          <mxGeometry x="46" y="577" width="40" height="40" as="geometry" />
        </mxCell>
        <mxCell id="wQTYGuOmZ5z0KffUW01f-220" value="" style="rounded=0;whiteSpace=wrap;html=1;" vertex="1" parent="1">
          <mxGeometry x="86" y="777" width="40" height="40" as="geometry" />
        </mxCell>
        <mxCell id="wQTYGuOmZ5z0KffUW01f-221" value="" style="rounded=0;whiteSpace=wrap;html=1;" vertex="1" parent="1">
          <mxGeometry x="86" y="737" width="40" height="40" as="geometry" />
        </mxCell>
        <mxCell id="wQTYGuOmZ5z0KffUW01f-222" value="" style="rounded=0;whiteSpace=wrap;html=1;" vertex="1" parent="1">
          <mxGeometry x="86" y="697" width="40" height="40" as="geometry" />
        </mxCell>
        <mxCell id="wQTYGuOmZ5z0KffUW01f-223" value="" style="rounded=0;whiteSpace=wrap;html=1;" vertex="1" parent="1">
          <mxGeometry x="86" y="657" width="40" height="40" as="geometry" />
        </mxCell>
        <mxCell id="wQTYGuOmZ5z0KffUW01f-224" value="" style="rounded=0;whiteSpace=wrap;html=1;" vertex="1" parent="1">
          <mxGeometry x="86" y="617" width="40" height="40" as="geometry" />
        </mxCell>
        <mxCell id="wQTYGuOmZ5z0KffUW01f-225" value="" style="rounded=0;whiteSpace=wrap;html=1;" vertex="1" parent="1">
          <mxGeometry x="86" y="577" width="40" height="40" as="geometry" />
        </mxCell>
        <mxCell id="wQTYGuOmZ5z0KffUW01f-226" value="" style="rounded=0;whiteSpace=wrap;html=1;" vertex="1" parent="1">
          <mxGeometry x="126" y="777" width="40" height="40" as="geometry" />
        </mxCell>
        <mxCell id="wQTYGuOmZ5z0KffUW01f-227" value="" style="rounded=0;whiteSpace=wrap;html=1;" vertex="1" parent="1">
          <mxGeometry x="126" y="737" width="40" height="40" as="geometry" />
        </mxCell>
        <mxCell id="wQTYGuOmZ5z0KffUW01f-228" value="" style="rounded=0;whiteSpace=wrap;html=1;" vertex="1" parent="1">
          <mxGeometry x="126" y="697" width="40" height="40" as="geometry" />
        </mxCell>
        <mxCell id="wQTYGuOmZ5z0KffUW01f-229" value="" style="rounded=0;whiteSpace=wrap;html=1;" vertex="1" parent="1">
          <mxGeometry x="126" y="657" width="40" height="40" as="geometry" />
        </mxCell>
        <mxCell id="wQTYGuOmZ5z0KffUW01f-230" value="" style="rounded=0;whiteSpace=wrap;html=1;" vertex="1" parent="1">
          <mxGeometry x="126" y="617" width="40" height="40" as="geometry" />
        </mxCell>
        <mxCell id="wQTYGuOmZ5z0KffUW01f-231" value="" style="rounded=0;whiteSpace=wrap;html=1;" vertex="1" parent="1">
          <mxGeometry x="126" y="577" width="40" height="40" as="geometry" />
        </mxCell>
        <mxCell id="wQTYGuOmZ5z0KffUW01f-232" value="" style="rounded=0;whiteSpace=wrap;html=1;" vertex="1" parent="1">
          <mxGeometry x="166" y="777" width="40" height="40" as="geometry" />
        </mxCell>
        <mxCell id="wQTYGuOmZ5z0KffUW01f-233" value="" style="rounded=0;whiteSpace=wrap;html=1;" vertex="1" parent="1">
          <mxGeometry x="166" y="737" width="40" height="40" as="geometry" />
        </mxCell>
        <mxCell id="wQTYGuOmZ5z0KffUW01f-234" value="" style="rounded=0;whiteSpace=wrap;html=1;" vertex="1" parent="1">
          <mxGeometry x="166" y="697" width="40" height="40" as="geometry" />
        </mxCell>
        <mxCell id="wQTYGuOmZ5z0KffUW01f-235" value="" style="rounded=0;whiteSpace=wrap;html=1;" vertex="1" parent="1">
          <mxGeometry x="166" y="657" width="40" height="40" as="geometry" />
        </mxCell>
        <mxCell id="wQTYGuOmZ5z0KffUW01f-236" value="" style="rounded=0;whiteSpace=wrap;html=1;" vertex="1" parent="1">
          <mxGeometry x="166" y="617" width="40" height="40" as="geometry" />
        </mxCell>
        <mxCell id="wQTYGuOmZ5z0KffUW01f-237" value="" style="rounded=0;whiteSpace=wrap;html=1;" vertex="1" parent="1">
          <mxGeometry x="166" y="577" width="40" height="40" as="geometry" />
        </mxCell>
        <mxCell id="wQTYGuOmZ5z0KffUW01f-238" value="" style="rounded=0;whiteSpace=wrap;html=1;" vertex="1" parent="1">
          <mxGeometry x="206" y="777" width="40" height="40" as="geometry" />
        </mxCell>
        <mxCell id="wQTYGuOmZ5z0KffUW01f-239" value="" style="rounded=0;whiteSpace=wrap;html=1;" vertex="1" parent="1">
          <mxGeometry x="206" y="737" width="40" height="40" as="geometry" />
        </mxCell>
        <mxCell id="wQTYGuOmZ5z0KffUW01f-240" value="" style="rounded=0;whiteSpace=wrap;html=1;" vertex="1" parent="1">
          <mxGeometry x="206" y="697" width="40" height="40" as="geometry" />
        </mxCell>
        <mxCell id="wQTYGuOmZ5z0KffUW01f-241" value="" style="rounded=0;whiteSpace=wrap;html=1;" vertex="1" parent="1">
          <mxGeometry x="206" y="657" width="40" height="40" as="geometry" />
        </mxCell>
        <mxCell id="wQTYGuOmZ5z0KffUW01f-242" value="" style="rounded=0;whiteSpace=wrap;html=1;" vertex="1" parent="1">
          <mxGeometry x="206" y="617" width="40" height="40" as="geometry" />
        </mxCell>
        <mxCell id="wQTYGuOmZ5z0KffUW01f-243" value="" style="rounded=0;whiteSpace=wrap;html=1;" vertex="1" parent="1">
          <mxGeometry x="206" y="577" width="40" height="40" as="geometry" />
        </mxCell>
        <mxCell id="wQTYGuOmZ5z0KffUW01f-244" value="" style="rounded=0;whiteSpace=wrap;html=1;" vertex="1" parent="1">
          <mxGeometry x="246" y="777" width="40" height="40" as="geometry" />
        </mxCell>
        <mxCell id="wQTYGuOmZ5z0KffUW01f-245" value="" style="rounded=0;whiteSpace=wrap;html=1;" vertex="1" parent="1">
          <mxGeometry x="246" y="737" width="40" height="40" as="geometry" />
        </mxCell>
        <mxCell id="wQTYGuOmZ5z0KffUW01f-246" value="" style="rounded=0;whiteSpace=wrap;html=1;" vertex="1" parent="1">
          <mxGeometry x="246" y="697" width="40" height="40" as="geometry" />
        </mxCell>
        <mxCell id="wQTYGuOmZ5z0KffUW01f-247" value="" style="rounded=0;whiteSpace=wrap;html=1;" vertex="1" parent="1">
          <mxGeometry x="246" y="657" width="40" height="40" as="geometry" />
        </mxCell>
        <mxCell id="wQTYGuOmZ5z0KffUW01f-248" value="" style="rounded=0;whiteSpace=wrap;html=1;" vertex="1" parent="1">
          <mxGeometry x="246" y="617" width="40" height="40" as="geometry" />
        </mxCell>
        <mxCell id="wQTYGuOmZ5z0KffUW01f-249" value="" style="rounded=0;whiteSpace=wrap;html=1;" vertex="1" parent="1">
          <mxGeometry x="246" y="577" width="40" height="40" as="geometry" />
        </mxCell>
        <mxCell id="wQTYGuOmZ5z0KffUW01f-250" value="O" style="rounded=0;whiteSpace=wrap;html=1;" vertex="1" parent="1">
          <mxGeometry x="286" y="777" width="40" height="40" as="geometry" />
        </mxCell>
        <mxCell id="wQTYGuOmZ5z0KffUW01f-251" value="O" style="rounded=0;whiteSpace=wrap;html=1;" vertex="1" parent="1">
          <mxGeometry x="286" y="737" width="40" height="40" as="geometry" />
        </mxCell>
        <mxCell id="wQTYGuOmZ5z0KffUW01f-252" value="O" style="rounded=0;whiteSpace=wrap;html=1;" vertex="1" parent="1">
          <mxGeometry x="286" y="697" width="40" height="40" as="geometry" />
        </mxCell>
        <mxCell id="wQTYGuOmZ5z0KffUW01f-253" value="O" style="rounded=0;whiteSpace=wrap;html=1;" vertex="1" parent="1">
          <mxGeometry x="286" y="657" width="40" height="40" as="geometry" />
        </mxCell>
        <mxCell id="wQTYGuOmZ5z0KffUW01f-254" value="O" style="rounded=0;whiteSpace=wrap;html=1;" vertex="1" parent="1">
          <mxGeometry x="286" y="617" width="40" height="40" as="geometry" />
        </mxCell>
        <mxCell id="wQTYGuOmZ5z0KffUW01f-255" value="O" style="rounded=0;whiteSpace=wrap;html=1;" vertex="1" parent="1">
          <mxGeometry x="286" y="577" width="40" height="40" as="geometry" />
        </mxCell>
        <mxCell id="wQTYGuOmZ5z0KffUW01f-256" value="" style="rounded=0;whiteSpace=wrap;html=1;" vertex="1" parent="1">
          <mxGeometry x="366" y="777" width="40" height="40" as="geometry" />
        </mxCell>
        <mxCell id="wQTYGuOmZ5z0KffUW01f-257" value="" style="rounded=0;whiteSpace=wrap;html=1;" vertex="1" parent="1">
          <mxGeometry x="326" y="737" width="40" height="40" as="geometry" />
        </mxCell>
        <mxCell id="wQTYGuOmZ5z0KffUW01f-258" value="" style="rounded=0;whiteSpace=wrap;html=1;" vertex="1" parent="1">
          <mxGeometry x="326" y="697" width="40" height="40" as="geometry" />
        </mxCell>
        <mxCell id="wQTYGuOmZ5z0KffUW01f-259" value="" style="rounded=0;whiteSpace=wrap;html=1;" vertex="1" parent="1">
          <mxGeometry x="326" y="617" width="40" height="40" as="geometry" />
        </mxCell>
        <mxCell id="wQTYGuOmZ5z0KffUW01f-260" value="" style="rounded=0;whiteSpace=wrap;html=1;" vertex="1" parent="1">
          <mxGeometry x="326" y="577" width="40" height="40" as="geometry" />
        </mxCell>
        <mxCell id="wQTYGuOmZ5z0KffUW01f-261" value="O" style="rounded=0;whiteSpace=wrap;html=1;" vertex="1" parent="1">
          <mxGeometry x="326" y="777" width="40" height="40" as="geometry" />
        </mxCell>
        <mxCell id="wQTYGuOmZ5z0KffUW01f-262" value="O" style="rounded=0;whiteSpace=wrap;html=1;" vertex="1" parent="1">
          <mxGeometry x="366" y="737" width="40" height="40" as="geometry" />
        </mxCell>
        <mxCell id="wQTYGuOmZ5z0KffUW01f-263" value="O" style="rounded=0;whiteSpace=wrap;html=1;" vertex="1" parent="1">
          <mxGeometry x="366" y="697" width="40" height="40" as="geometry" />
        </mxCell>
        <mxCell id="wQTYGuOmZ5z0KffUW01f-264" value="O" style="rounded=0;whiteSpace=wrap;html=1;" vertex="1" parent="1">
          <mxGeometry x="366" y="657" width="40" height="40" as="geometry" />
        </mxCell>
        <mxCell id="wQTYGuOmZ5z0KffUW01f-265" value="" style="rounded=0;whiteSpace=wrap;html=1;" vertex="1" parent="1">
          <mxGeometry x="446" y="577" width="40" height="40" as="geometry" />
        </mxCell>
        <mxCell id="wQTYGuOmZ5z0KffUW01f-266" value="O" style="rounded=0;whiteSpace=wrap;html=1;" vertex="1" parent="1">
          <mxGeometry x="406" y="777" width="40" height="40" as="geometry" />
        </mxCell>
        <mxCell id="wQTYGuOmZ5z0KffUW01f-267" value="" style="rounded=0;whiteSpace=wrap;html=1;" vertex="1" parent="1">
          <mxGeometry x="486" y="737" width="40" height="40" as="geometry" />
        </mxCell>
        <mxCell id="wQTYGuOmZ5z0KffUW01f-268" value="" style="rounded=0;whiteSpace=wrap;html=1;" vertex="1" parent="1">
          <mxGeometry x="446" y="697" width="40" height="40" as="geometry" />
        </mxCell>
        <mxCell id="wQTYGuOmZ5z0KffUW01f-269" value="" style="rounded=0;whiteSpace=wrap;html=1;" vertex="1" parent="1">
          <mxGeometry x="406" y="657" width="40" height="40" as="geometry" />
        </mxCell>
        <mxCell id="wQTYGuOmZ5z0KffUW01f-270" value="O" style="rounded=0;whiteSpace=wrap;html=1;" vertex="1" parent="1">
          <mxGeometry x="366" y="617" width="40" height="40" as="geometry" />
        </mxCell>
        <mxCell id="wQTYGuOmZ5z0KffUW01f-271" value="O" style="rounded=0;whiteSpace=wrap;html=1;" vertex="1" parent="1">
          <mxGeometry x="406" y="577" width="40" height="40" as="geometry" />
        </mxCell>
        <mxCell id="wQTYGuOmZ5z0KffUW01f-272" value="" style="rounded=0;whiteSpace=wrap;html=1;" vertex="1" parent="1">
          <mxGeometry x="446" y="777" width="40" height="40" as="geometry" />
        </mxCell>
        <mxCell id="wQTYGuOmZ5z0KffUW01f-273" value="O" style="rounded=0;whiteSpace=wrap;html=1;" vertex="1" parent="1">
          <mxGeometry x="406" y="737" width="40" height="40" as="geometry" />
        </mxCell>
        <mxCell id="wQTYGuOmZ5z0KffUW01f-274" value="O" style="rounded=0;whiteSpace=wrap;html=1;" vertex="1" parent="1">
          <mxGeometry x="406" y="697" width="40" height="40" as="geometry" />
        </mxCell>
        <mxCell id="wQTYGuOmZ5z0KffUW01f-275" value="" style="rounded=0;whiteSpace=wrap;html=1;" vertex="1" parent="1">
          <mxGeometry x="446" y="657" width="40" height="40" as="geometry" />
        </mxCell>
        <mxCell id="wQTYGuOmZ5z0KffUW01f-276" value="O" style="rounded=0;whiteSpace=wrap;html=1;" vertex="1" parent="1">
          <mxGeometry x="406" y="617" width="40" height="40" as="geometry" />
        </mxCell>
        <mxCell id="wQTYGuOmZ5z0KffUW01f-277" value="O" style="rounded=0;whiteSpace=wrap;html=1;" vertex="1" parent="1">
          <mxGeometry x="366" y="577" width="40" height="40" as="geometry" />
        </mxCell>
        <mxCell id="wQTYGuOmZ5z0KffUW01f-278" value="" style="rounded=0;whiteSpace=wrap;html=1;" vertex="1" parent="1">
          <mxGeometry x="486" y="777" width="40" height="40" as="geometry" />
        </mxCell>
        <mxCell id="wQTYGuOmZ5z0KffUW01f-279" value="" style="rounded=0;whiteSpace=wrap;html=1;" vertex="1" parent="1">
          <mxGeometry x="446" y="737" width="40" height="40" as="geometry" />
        </mxCell>
        <mxCell id="wQTYGuOmZ5z0KffUW01f-280" value="" style="rounded=0;whiteSpace=wrap;html=1;" vertex="1" parent="1">
          <mxGeometry x="486" y="697" width="40" height="40" as="geometry" />
        </mxCell>
        <mxCell id="wQTYGuOmZ5z0KffUW01f-281" value="" style="rounded=0;whiteSpace=wrap;html=1;" vertex="1" parent="1">
          <mxGeometry x="486" y="657" width="40" height="40" as="geometry" />
        </mxCell>
        <mxCell id="wQTYGuOmZ5z0KffUW01f-282" value="" style="rounded=0;whiteSpace=wrap;html=1;" vertex="1" parent="1">
          <mxGeometry x="486" y="617" width="40" height="40" as="geometry" />
        </mxCell>
        <mxCell id="wQTYGuOmZ5z0KffUW01f-283" value="" style="rounded=0;whiteSpace=wrap;html=1;" vertex="1" parent="1">
          <mxGeometry x="486" y="577" width="40" height="40" as="geometry" />
        </mxCell>
        <mxCell id="wQTYGuOmZ5z0KffUW01f-296" value="" style="rounded=0;whiteSpace=wrap;html=1;" vertex="1" parent="1">
          <mxGeometry x="446" y="617" width="40" height="40" as="geometry" />
        </mxCell>
        <mxCell id="wQTYGuOmZ5z0KffUW01f-297" value="C FRIGIO (2b 3b 6b 7b)&amp;nbsp; -&amp;gt; Ab Maggiore (III)" style="text;html=1;align=center;verticalAlign=middle;whiteSpace=wrap;rounded=0;" vertex="1" parent="1">
          <mxGeometry x="6" y="547" width="524" height="30" as="geometry" />
        </mxCell>
        <mxCell id="wQTYGuOmZ5z0KffUW01f-298" value="" style="rounded=0;whiteSpace=wrap;html=1;" vertex="1" parent="1">
          <mxGeometry x="560" y="234" width="40" height="40" as="geometry" />
        </mxCell>
        <mxCell id="wQTYGuOmZ5z0KffUW01f-299" value="" style="rounded=0;whiteSpace=wrap;html=1;" vertex="1" parent="1">
          <mxGeometry x="560" y="194" width="40" height="40" as="geometry" />
        </mxCell>
        <mxCell id="wQTYGuOmZ5z0KffUW01f-300" value="" style="rounded=0;whiteSpace=wrap;html=1;" vertex="1" parent="1">
          <mxGeometry x="560" y="154" width="40" height="40" as="geometry" />
        </mxCell>
        <mxCell id="wQTYGuOmZ5z0KffUW01f-301" value="" style="rounded=0;whiteSpace=wrap;html=1;" vertex="1" parent="1">
          <mxGeometry x="560" y="114" width="40" height="40" as="geometry" />
        </mxCell>
        <mxCell id="wQTYGuOmZ5z0KffUW01f-302" value="" style="rounded=0;whiteSpace=wrap;html=1;" vertex="1" parent="1">
          <mxGeometry x="560" y="74" width="40" height="40" as="geometry" />
        </mxCell>
        <mxCell id="wQTYGuOmZ5z0KffUW01f-303" value="" style="rounded=0;whiteSpace=wrap;html=1;" vertex="1" parent="1">
          <mxGeometry x="560" y="34" width="40" height="40" as="geometry" />
        </mxCell>
        <mxCell id="wQTYGuOmZ5z0KffUW01f-304" value="" style="rounded=0;whiteSpace=wrap;html=1;" vertex="1" parent="1">
          <mxGeometry x="600" y="234" width="40" height="40" as="geometry" />
        </mxCell>
        <mxCell id="wQTYGuOmZ5z0KffUW01f-305" value="" style="rounded=0;whiteSpace=wrap;html=1;" vertex="1" parent="1">
          <mxGeometry x="600" y="194" width="40" height="40" as="geometry" />
        </mxCell>
        <mxCell id="wQTYGuOmZ5z0KffUW01f-306" value="" style="rounded=0;whiteSpace=wrap;html=1;" vertex="1" parent="1">
          <mxGeometry x="600" y="154" width="40" height="40" as="geometry" />
        </mxCell>
        <mxCell id="wQTYGuOmZ5z0KffUW01f-307" value="" style="rounded=0;whiteSpace=wrap;html=1;" vertex="1" parent="1">
          <mxGeometry x="600" y="114" width="40" height="40" as="geometry" />
        </mxCell>
        <mxCell id="wQTYGuOmZ5z0KffUW01f-308" value="" style="rounded=0;whiteSpace=wrap;html=1;" vertex="1" parent="1">
          <mxGeometry x="600" y="74" width="40" height="40" as="geometry" />
        </mxCell>
        <mxCell id="wQTYGuOmZ5z0KffUW01f-309" value="" style="rounded=0;whiteSpace=wrap;html=1;" vertex="1" parent="1">
          <mxGeometry x="600" y="34" width="40" height="40" as="geometry" />
        </mxCell>
        <mxCell id="wQTYGuOmZ5z0KffUW01f-310" value="" style="rounded=0;whiteSpace=wrap;html=1;" vertex="1" parent="1">
          <mxGeometry x="640" y="234" width="40" height="40" as="geometry" />
        </mxCell>
        <mxCell id="wQTYGuOmZ5z0KffUW01f-311" value="" style="rounded=0;whiteSpace=wrap;html=1;" vertex="1" parent="1">
          <mxGeometry x="640" y="194" width="40" height="40" as="geometry" />
        </mxCell>
        <mxCell id="wQTYGuOmZ5z0KffUW01f-312" value="" style="rounded=0;whiteSpace=wrap;html=1;" vertex="1" parent="1">
          <mxGeometry x="640" y="154" width="40" height="40" as="geometry" />
        </mxCell>
        <mxCell id="wQTYGuOmZ5z0KffUW01f-313" value="" style="rounded=0;whiteSpace=wrap;html=1;" vertex="1" parent="1">
          <mxGeometry x="640" y="114" width="40" height="40" as="geometry" />
        </mxCell>
        <mxCell id="wQTYGuOmZ5z0KffUW01f-314" value="" style="rounded=0;whiteSpace=wrap;html=1;" vertex="1" parent="1">
          <mxGeometry x="640" y="74" width="40" height="40" as="geometry" />
        </mxCell>
        <mxCell id="wQTYGuOmZ5z0KffUW01f-315" value="" style="rounded=0;whiteSpace=wrap;html=1;" vertex="1" parent="1">
          <mxGeometry x="640" y="34" width="40" height="40" as="geometry" />
        </mxCell>
        <mxCell id="wQTYGuOmZ5z0KffUW01f-316" value="" style="rounded=0;whiteSpace=wrap;html=1;" vertex="1" parent="1">
          <mxGeometry x="680" y="234" width="40" height="40" as="geometry" />
        </mxCell>
        <mxCell id="wQTYGuOmZ5z0KffUW01f-317" value="" style="rounded=0;whiteSpace=wrap;html=1;" vertex="1" parent="1">
          <mxGeometry x="680" y="194" width="40" height="40" as="geometry" />
        </mxCell>
        <mxCell id="wQTYGuOmZ5z0KffUW01f-318" value="" style="rounded=0;whiteSpace=wrap;html=1;" vertex="1" parent="1">
          <mxGeometry x="680" y="154" width="40" height="40" as="geometry" />
        </mxCell>
        <mxCell id="wQTYGuOmZ5z0KffUW01f-319" value="" style="rounded=0;whiteSpace=wrap;html=1;" vertex="1" parent="1">
          <mxGeometry x="680" y="114" width="40" height="40" as="geometry" />
        </mxCell>
        <mxCell id="wQTYGuOmZ5z0KffUW01f-320" value="" style="rounded=0;whiteSpace=wrap;html=1;" vertex="1" parent="1">
          <mxGeometry x="680" y="74" width="40" height="40" as="geometry" />
        </mxCell>
        <mxCell id="wQTYGuOmZ5z0KffUW01f-321" value="" style="rounded=0;whiteSpace=wrap;html=1;" vertex="1" parent="1">
          <mxGeometry x="680" y="34" width="40" height="40" as="geometry" />
        </mxCell>
        <mxCell id="wQTYGuOmZ5z0KffUW01f-322" value="" style="rounded=0;whiteSpace=wrap;html=1;" vertex="1" parent="1">
          <mxGeometry x="720" y="234" width="40" height="40" as="geometry" />
        </mxCell>
        <mxCell id="wQTYGuOmZ5z0KffUW01f-323" value="" style="rounded=0;whiteSpace=wrap;html=1;" vertex="1" parent="1">
          <mxGeometry x="720" y="194" width="40" height="40" as="geometry" />
        </mxCell>
        <mxCell id="wQTYGuOmZ5z0KffUW01f-324" value="" style="rounded=0;whiteSpace=wrap;html=1;" vertex="1" parent="1">
          <mxGeometry x="720" y="154" width="40" height="40" as="geometry" />
        </mxCell>
        <mxCell id="wQTYGuOmZ5z0KffUW01f-325" value="" style="rounded=0;whiteSpace=wrap;html=1;" vertex="1" parent="1">
          <mxGeometry x="720" y="114" width="40" height="40" as="geometry" />
        </mxCell>
        <mxCell id="wQTYGuOmZ5z0KffUW01f-326" value="" style="rounded=0;whiteSpace=wrap;html=1;" vertex="1" parent="1">
          <mxGeometry x="720" y="74" width="40" height="40" as="geometry" />
        </mxCell>
        <mxCell id="wQTYGuOmZ5z0KffUW01f-327" value="" style="rounded=0;whiteSpace=wrap;html=1;" vertex="1" parent="1">
          <mxGeometry x="720" y="34" width="40" height="40" as="geometry" />
        </mxCell>
        <mxCell id="wQTYGuOmZ5z0KffUW01f-328" value="" style="rounded=0;whiteSpace=wrap;html=1;" vertex="1" parent="1">
          <mxGeometry x="760" y="234" width="40" height="40" as="geometry" />
        </mxCell>
        <mxCell id="wQTYGuOmZ5z0KffUW01f-329" value="" style="rounded=0;whiteSpace=wrap;html=1;" vertex="1" parent="1">
          <mxGeometry x="760" y="194" width="40" height="40" as="geometry" />
        </mxCell>
        <mxCell id="wQTYGuOmZ5z0KffUW01f-330" value="" style="rounded=0;whiteSpace=wrap;html=1;" vertex="1" parent="1">
          <mxGeometry x="760" y="154" width="40" height="40" as="geometry" />
        </mxCell>
        <mxCell id="wQTYGuOmZ5z0KffUW01f-331" value="" style="rounded=0;whiteSpace=wrap;html=1;" vertex="1" parent="1">
          <mxGeometry x="760" y="114" width="40" height="40" as="geometry" />
        </mxCell>
        <mxCell id="wQTYGuOmZ5z0KffUW01f-332" value="" style="rounded=0;whiteSpace=wrap;html=1;" vertex="1" parent="1">
          <mxGeometry x="760" y="74" width="40" height="40" as="geometry" />
        </mxCell>
        <mxCell id="wQTYGuOmZ5z0KffUW01f-333" value="" style="rounded=0;whiteSpace=wrap;html=1;" vertex="1" parent="1">
          <mxGeometry x="760" y="34" width="40" height="40" as="geometry" />
        </mxCell>
        <mxCell id="wQTYGuOmZ5z0KffUW01f-334" value="" style="rounded=0;whiteSpace=wrap;html=1;" vertex="1" parent="1">
          <mxGeometry x="800" y="234" width="40" height="40" as="geometry" />
        </mxCell>
        <mxCell id="wQTYGuOmZ5z0KffUW01f-335" value="" style="rounded=0;whiteSpace=wrap;html=1;" vertex="1" parent="1">
          <mxGeometry x="800" y="194" width="40" height="40" as="geometry" />
        </mxCell>
        <mxCell id="wQTYGuOmZ5z0KffUW01f-336" value="" style="rounded=0;whiteSpace=wrap;html=1;" vertex="1" parent="1">
          <mxGeometry x="800" y="154" width="40" height="40" as="geometry" />
        </mxCell>
        <mxCell id="wQTYGuOmZ5z0KffUW01f-337" value="" style="rounded=0;whiteSpace=wrap;html=1;" vertex="1" parent="1">
          <mxGeometry x="800" y="114" width="40" height="40" as="geometry" />
        </mxCell>
        <mxCell id="wQTYGuOmZ5z0KffUW01f-338" value="" style="rounded=0;whiteSpace=wrap;html=1;" vertex="1" parent="1">
          <mxGeometry x="800" y="74" width="40" height="40" as="geometry" />
        </mxCell>
        <mxCell id="wQTYGuOmZ5z0KffUW01f-339" value="" style="rounded=0;whiteSpace=wrap;html=1;" vertex="1" parent="1">
          <mxGeometry x="800" y="34" width="40" height="40" as="geometry" />
        </mxCell>
        <mxCell id="wQTYGuOmZ5z0KffUW01f-340" value="O" style="rounded=0;whiteSpace=wrap;html=1;" vertex="1" parent="1">
          <mxGeometry x="840" y="234" width="40" height="40" as="geometry" />
        </mxCell>
        <mxCell id="wQTYGuOmZ5z0KffUW01f-341" value="O" style="rounded=0;whiteSpace=wrap;html=1;" vertex="1" parent="1">
          <mxGeometry x="880" y="194" width="40" height="40" as="geometry" />
        </mxCell>
        <mxCell id="wQTYGuOmZ5z0KffUW01f-342" value="O" style="rounded=0;whiteSpace=wrap;html=1;" vertex="1" parent="1">
          <mxGeometry x="880" y="154" width="40" height="40" as="geometry" />
        </mxCell>
        <mxCell id="wQTYGuOmZ5z0KffUW01f-343" value="O" style="rounded=0;whiteSpace=wrap;html=1;" vertex="1" parent="1">
          <mxGeometry x="960" y="114" width="40" height="40" as="geometry" />
        </mxCell>
        <mxCell id="wQTYGuOmZ5z0KffUW01f-344" value="O" style="rounded=0;whiteSpace=wrap;html=1;" vertex="1" parent="1">
          <mxGeometry x="1000" y="74" width="40" height="40" as="geometry" />
        </mxCell>
        <mxCell id="wQTYGuOmZ5z0KffUW01f-345" value="O" style="rounded=0;whiteSpace=wrap;html=1;" vertex="1" parent="1">
          <mxGeometry x="840" y="34" width="40" height="40" as="geometry" />
        </mxCell>
        <mxCell id="wQTYGuOmZ5z0KffUW01f-346" value="" style="rounded=0;whiteSpace=wrap;html=1;" vertex="1" parent="1">
          <mxGeometry x="960" y="234" width="40" height="40" as="geometry" />
        </mxCell>
        <mxCell id="wQTYGuOmZ5z0KffUW01f-347" value="" style="rounded=0;whiteSpace=wrap;html=1;" vertex="1" parent="1">
          <mxGeometry x="960" y="194" width="40" height="40" as="geometry" />
        </mxCell>
        <mxCell id="wQTYGuOmZ5z0KffUW01f-348" value="" style="rounded=0;whiteSpace=wrap;html=1;" vertex="1" parent="1">
          <mxGeometry x="840" y="154" width="40" height="40" as="geometry" />
        </mxCell>
        <mxCell id="wQTYGuOmZ5z0KffUW01f-349" value="" style="rounded=0;whiteSpace=wrap;html=1;" vertex="1" parent="1">
          <mxGeometry x="880" y="74" width="40" height="40" as="geometry" />
        </mxCell>
        <mxCell id="wQTYGuOmZ5z0KffUW01f-350" value="" style="rounded=0;whiteSpace=wrap;html=1;" vertex="1" parent="1">
          <mxGeometry x="880" y="34" width="40" height="40" as="geometry" />
        </mxCell>
        <mxCell id="wQTYGuOmZ5z0KffUW01f-351" value="O" style="rounded=0;whiteSpace=wrap;html=1;" vertex="1" parent="1">
          <mxGeometry x="920" y="234" width="40" height="40" as="geometry" />
        </mxCell>
        <mxCell id="wQTYGuOmZ5z0KffUW01f-352" value="O" style="rounded=0;whiteSpace=wrap;html=1;" vertex="1" parent="1">
          <mxGeometry x="920" y="194" width="40" height="40" as="geometry" />
        </mxCell>
        <mxCell id="wQTYGuOmZ5z0KffUW01f-353" value="O" style="rounded=0;whiteSpace=wrap;html=1;" vertex="1" parent="1">
          <mxGeometry x="920" y="154" width="40" height="40" as="geometry" />
        </mxCell>
        <mxCell id="wQTYGuOmZ5z0KffUW01f-354" value="O" style="rounded=0;whiteSpace=wrap;html=1;" vertex="1" parent="1">
          <mxGeometry x="1000" y="114" width="40" height="40" as="geometry" />
        </mxCell>
        <mxCell id="wQTYGuOmZ5z0KffUW01f-355" value="" style="rounded=0;whiteSpace=wrap;html=1;" vertex="1" parent="1">
          <mxGeometry x="960" y="34" width="40" height="40" as="geometry" />
        </mxCell>
        <mxCell id="wQTYGuOmZ5z0KffUW01f-356" value="O" style="rounded=0;whiteSpace=wrap;html=1;" vertex="1" parent="1">
          <mxGeometry x="1000" y="234" width="40" height="40" as="geometry" />
        </mxCell>
        <mxCell id="wQTYGuOmZ5z0KffUW01f-357" value="" style="rounded=0;whiteSpace=wrap;html=1;" vertex="1" parent="1">
          <mxGeometry x="1040" y="194" width="40" height="40" as="geometry" />
        </mxCell>
        <mxCell id="wQTYGuOmZ5z0KffUW01f-358" value="" style="rounded=0;whiteSpace=wrap;html=1;" vertex="1" parent="1">
          <mxGeometry x="960" y="154" width="40" height="40" as="geometry" />
        </mxCell>
        <mxCell id="wQTYGuOmZ5z0KffUW01f-359" value="" style="rounded=0;whiteSpace=wrap;html=1;" vertex="1" parent="1">
          <mxGeometry x="840" y="74" width="40" height="40" as="geometry" />
        </mxCell>
        <mxCell id="wQTYGuOmZ5z0KffUW01f-360" value="O" style="rounded=0;whiteSpace=wrap;html=1;" vertex="1" parent="1">
          <mxGeometry x="920" y="74" width="40" height="40" as="geometry" />
        </mxCell>
        <mxCell id="wQTYGuOmZ5z0KffUW01f-361" value="O" style="rounded=0;whiteSpace=wrap;html=1;" vertex="1" parent="1">
          <mxGeometry x="1000" y="34" width="40" height="40" as="geometry" />
        </mxCell>
        <mxCell id="wQTYGuOmZ5z0KffUW01f-362" value="" style="rounded=0;whiteSpace=wrap;html=1;" vertex="1" parent="1">
          <mxGeometry x="880" y="234" width="40" height="40" as="geometry" />
        </mxCell>
        <mxCell id="wQTYGuOmZ5z0KffUW01f-363" value="O" style="rounded=0;whiteSpace=wrap;html=1;" vertex="1" parent="1">
          <mxGeometry x="1000" y="194" width="40" height="40" as="geometry" />
        </mxCell>
        <mxCell id="wQTYGuOmZ5z0KffUW01f-364" value="O" style="rounded=0;whiteSpace=wrap;html=1;" vertex="1" parent="1">
          <mxGeometry x="1000" y="154" width="40" height="40" as="geometry" />
        </mxCell>
        <mxCell id="wQTYGuOmZ5z0KffUW01f-365" value="" style="rounded=0;whiteSpace=wrap;html=1;" vertex="1" parent="1">
          <mxGeometry x="840" y="114" width="40" height="40" as="geometry" />
        </mxCell>
        <mxCell id="wQTYGuOmZ5z0KffUW01f-367" value="O" style="rounded=0;whiteSpace=wrap;html=1;" vertex="1" parent="1">
          <mxGeometry x="920" y="34" width="40" height="40" as="geometry" />
        </mxCell>
        <mxCell id="wQTYGuOmZ5z0KffUW01f-368" value="" style="rounded=0;whiteSpace=wrap;html=1;" vertex="1" parent="1">
          <mxGeometry x="1040" y="234" width="40" height="40" as="geometry" />
        </mxCell>
        <mxCell id="wQTYGuOmZ5z0KffUW01f-369" value="" style="rounded=0;whiteSpace=wrap;html=1;" vertex="1" parent="1">
          <mxGeometry x="840" y="194" width="40" height="40" as="geometry" />
        </mxCell>
        <mxCell id="wQTYGuOmZ5z0KffUW01f-370" value="" style="rounded=0;whiteSpace=wrap;html=1;" vertex="1" parent="1">
          <mxGeometry x="1040" y="154" width="40" height="40" as="geometry" />
        </mxCell>
        <mxCell id="wQTYGuOmZ5z0KffUW01f-371" value="" style="rounded=0;whiteSpace=wrap;html=1;" vertex="1" parent="1">
          <mxGeometry x="1040" y="114" width="40" height="40" as="geometry" />
        </mxCell>
        <mxCell id="wQTYGuOmZ5z0KffUW01f-372" value="" style="rounded=0;whiteSpace=wrap;html=1;" vertex="1" parent="1">
          <mxGeometry x="1040" y="74" width="40" height="40" as="geometry" />
        </mxCell>
        <mxCell id="wQTYGuOmZ5z0KffUW01f-373" value="" style="rounded=0;whiteSpace=wrap;html=1;" vertex="1" parent="1">
          <mxGeometry x="1040" y="34" width="40" height="40" as="geometry" />
        </mxCell>
        <mxCell id="wQTYGuOmZ5z0KffUW01f-386" value="" style="rounded=0;whiteSpace=wrap;html=1;" vertex="1" parent="1">
          <mxGeometry x="960" y="74" width="40" height="40" as="geometry" />
        </mxCell>
        <mxCell id="wQTYGuOmZ5z0KffUW01f-387" value="C LIDIO (4#)&amp;nbsp; -&amp;gt; G Maggiore (IV)" style="text;html=1;align=center;verticalAlign=middle;whiteSpace=wrap;rounded=0;" vertex="1" parent="1">
          <mxGeometry x="560" y="4" width="520" height="30" as="geometry" />
        </mxCell>
        <mxCell id="wQTYGuOmZ5z0KffUW01f-388" value="" style="rounded=0;whiteSpace=wrap;html=1;" vertex="1" parent="1">
          <mxGeometry x="560" y="504" width="40" height="40" as="geometry" />
        </mxCell>
        <mxCell id="wQTYGuOmZ5z0KffUW01f-389" value="" style="rounded=0;whiteSpace=wrap;html=1;" vertex="1" parent="1">
          <mxGeometry x="560" y="464" width="40" height="40" as="geometry" />
        </mxCell>
        <mxCell id="wQTYGuOmZ5z0KffUW01f-390" value="" style="rounded=0;whiteSpace=wrap;html=1;" vertex="1" parent="1">
          <mxGeometry x="560" y="424" width="40" height="40" as="geometry" />
        </mxCell>
        <mxCell id="wQTYGuOmZ5z0KffUW01f-391" value="" style="rounded=0;whiteSpace=wrap;html=1;" vertex="1" parent="1">
          <mxGeometry x="560" y="384" width="40" height="40" as="geometry" />
        </mxCell>
        <mxCell id="wQTYGuOmZ5z0KffUW01f-392" value="" style="rounded=0;whiteSpace=wrap;html=1;" vertex="1" parent="1">
          <mxGeometry x="560" y="344" width="40" height="40" as="geometry" />
        </mxCell>
        <mxCell id="wQTYGuOmZ5z0KffUW01f-393" value="" style="rounded=0;whiteSpace=wrap;html=1;" vertex="1" parent="1">
          <mxGeometry x="560" y="304" width="40" height="40" as="geometry" />
        </mxCell>
        <mxCell id="wQTYGuOmZ5z0KffUW01f-394" value="" style="rounded=0;whiteSpace=wrap;html=1;" vertex="1" parent="1">
          <mxGeometry x="600" y="504" width="40" height="40" as="geometry" />
        </mxCell>
        <mxCell id="wQTYGuOmZ5z0KffUW01f-395" value="" style="rounded=0;whiteSpace=wrap;html=1;" vertex="1" parent="1">
          <mxGeometry x="600" y="464" width="40" height="40" as="geometry" />
        </mxCell>
        <mxCell id="wQTYGuOmZ5z0KffUW01f-396" value="" style="rounded=0;whiteSpace=wrap;html=1;" vertex="1" parent="1">
          <mxGeometry x="600" y="424" width="40" height="40" as="geometry" />
        </mxCell>
        <mxCell id="wQTYGuOmZ5z0KffUW01f-397" value="" style="rounded=0;whiteSpace=wrap;html=1;" vertex="1" parent="1">
          <mxGeometry x="600" y="384" width="40" height="40" as="geometry" />
        </mxCell>
        <mxCell id="wQTYGuOmZ5z0KffUW01f-398" value="" style="rounded=0;whiteSpace=wrap;html=1;" vertex="1" parent="1">
          <mxGeometry x="600" y="344" width="40" height="40" as="geometry" />
        </mxCell>
        <mxCell id="wQTYGuOmZ5z0KffUW01f-399" value="" style="rounded=0;whiteSpace=wrap;html=1;" vertex="1" parent="1">
          <mxGeometry x="600" y="304" width="40" height="40" as="geometry" />
        </mxCell>
        <mxCell id="wQTYGuOmZ5z0KffUW01f-400" value="" style="rounded=0;whiteSpace=wrap;html=1;" vertex="1" parent="1">
          <mxGeometry x="640" y="504" width="40" height="40" as="geometry" />
        </mxCell>
        <mxCell id="wQTYGuOmZ5z0KffUW01f-401" value="" style="rounded=0;whiteSpace=wrap;html=1;" vertex="1" parent="1">
          <mxGeometry x="640" y="464" width="40" height="40" as="geometry" />
        </mxCell>
        <mxCell id="wQTYGuOmZ5z0KffUW01f-402" value="" style="rounded=0;whiteSpace=wrap;html=1;" vertex="1" parent="1">
          <mxGeometry x="640" y="424" width="40" height="40" as="geometry" />
        </mxCell>
        <mxCell id="wQTYGuOmZ5z0KffUW01f-403" value="" style="rounded=0;whiteSpace=wrap;html=1;" vertex="1" parent="1">
          <mxGeometry x="640" y="384" width="40" height="40" as="geometry" />
        </mxCell>
        <mxCell id="wQTYGuOmZ5z0KffUW01f-404" value="" style="rounded=0;whiteSpace=wrap;html=1;" vertex="1" parent="1">
          <mxGeometry x="640" y="344" width="40" height="40" as="geometry" />
        </mxCell>
        <mxCell id="wQTYGuOmZ5z0KffUW01f-405" value="" style="rounded=0;whiteSpace=wrap;html=1;" vertex="1" parent="1">
          <mxGeometry x="640" y="304" width="40" height="40" as="geometry" />
        </mxCell>
        <mxCell id="wQTYGuOmZ5z0KffUW01f-406" value="" style="rounded=0;whiteSpace=wrap;html=1;" vertex="1" parent="1">
          <mxGeometry x="680" y="504" width="40" height="40" as="geometry" />
        </mxCell>
        <mxCell id="wQTYGuOmZ5z0KffUW01f-407" value="" style="rounded=0;whiteSpace=wrap;html=1;" vertex="1" parent="1">
          <mxGeometry x="680" y="464" width="40" height="40" as="geometry" />
        </mxCell>
        <mxCell id="wQTYGuOmZ5z0KffUW01f-408" value="" style="rounded=0;whiteSpace=wrap;html=1;" vertex="1" parent="1">
          <mxGeometry x="680" y="424" width="40" height="40" as="geometry" />
        </mxCell>
        <mxCell id="wQTYGuOmZ5z0KffUW01f-409" value="" style="rounded=0;whiteSpace=wrap;html=1;" vertex="1" parent="1">
          <mxGeometry x="680" y="384" width="40" height="40" as="geometry" />
        </mxCell>
        <mxCell id="wQTYGuOmZ5z0KffUW01f-410" value="" style="rounded=0;whiteSpace=wrap;html=1;" vertex="1" parent="1">
          <mxGeometry x="680" y="344" width="40" height="40" as="geometry" />
        </mxCell>
        <mxCell id="wQTYGuOmZ5z0KffUW01f-411" value="" style="rounded=0;whiteSpace=wrap;html=1;" vertex="1" parent="1">
          <mxGeometry x="680" y="304" width="40" height="40" as="geometry" />
        </mxCell>
        <mxCell id="wQTYGuOmZ5z0KffUW01f-412" value="" style="rounded=0;whiteSpace=wrap;html=1;" vertex="1" parent="1">
          <mxGeometry x="720" y="504" width="40" height="40" as="geometry" />
        </mxCell>
        <mxCell id="wQTYGuOmZ5z0KffUW01f-413" value="" style="rounded=0;whiteSpace=wrap;html=1;" vertex="1" parent="1">
          <mxGeometry x="720" y="464" width="40" height="40" as="geometry" />
        </mxCell>
        <mxCell id="wQTYGuOmZ5z0KffUW01f-414" value="" style="rounded=0;whiteSpace=wrap;html=1;" vertex="1" parent="1">
          <mxGeometry x="720" y="424" width="40" height="40" as="geometry" />
        </mxCell>
        <mxCell id="wQTYGuOmZ5z0KffUW01f-415" value="" style="rounded=0;whiteSpace=wrap;html=1;" vertex="1" parent="1">
          <mxGeometry x="720" y="384" width="40" height="40" as="geometry" />
        </mxCell>
        <mxCell id="wQTYGuOmZ5z0KffUW01f-416" value="" style="rounded=0;whiteSpace=wrap;html=1;" vertex="1" parent="1">
          <mxGeometry x="720" y="344" width="40" height="40" as="geometry" />
        </mxCell>
        <mxCell id="wQTYGuOmZ5z0KffUW01f-417" value="" style="rounded=0;whiteSpace=wrap;html=1;" vertex="1" parent="1">
          <mxGeometry x="720" y="304" width="40" height="40" as="geometry" />
        </mxCell>
        <mxCell id="wQTYGuOmZ5z0KffUW01f-418" value="" style="rounded=0;whiteSpace=wrap;html=1;" vertex="1" parent="1">
          <mxGeometry x="760" y="504" width="40" height="40" as="geometry" />
        </mxCell>
        <mxCell id="wQTYGuOmZ5z0KffUW01f-419" value="" style="rounded=0;whiteSpace=wrap;html=1;" vertex="1" parent="1">
          <mxGeometry x="760" y="464" width="40" height="40" as="geometry" />
        </mxCell>
        <mxCell id="wQTYGuOmZ5z0KffUW01f-420" value="" style="rounded=0;whiteSpace=wrap;html=1;" vertex="1" parent="1">
          <mxGeometry x="760" y="424" width="40" height="40" as="geometry" />
        </mxCell>
        <mxCell id="wQTYGuOmZ5z0KffUW01f-421" value="" style="rounded=0;whiteSpace=wrap;html=1;" vertex="1" parent="1">
          <mxGeometry x="760" y="384" width="40" height="40" as="geometry" />
        </mxCell>
        <mxCell id="wQTYGuOmZ5z0KffUW01f-422" value="" style="rounded=0;whiteSpace=wrap;html=1;" vertex="1" parent="1">
          <mxGeometry x="760" y="344" width="40" height="40" as="geometry" />
        </mxCell>
        <mxCell id="wQTYGuOmZ5z0KffUW01f-423" value="" style="rounded=0;whiteSpace=wrap;html=1;" vertex="1" parent="1">
          <mxGeometry x="760" y="304" width="40" height="40" as="geometry" />
        </mxCell>
        <mxCell id="wQTYGuOmZ5z0KffUW01f-424" value="" style="rounded=0;whiteSpace=wrap;html=1;" vertex="1" parent="1">
          <mxGeometry x="800" y="504" width="40" height="40" as="geometry" />
        </mxCell>
        <mxCell id="wQTYGuOmZ5z0KffUW01f-425" value="" style="rounded=0;whiteSpace=wrap;html=1;" vertex="1" parent="1">
          <mxGeometry x="800" y="464" width="40" height="40" as="geometry" />
        </mxCell>
        <mxCell id="wQTYGuOmZ5z0KffUW01f-426" value="" style="rounded=0;whiteSpace=wrap;html=1;" vertex="1" parent="1">
          <mxGeometry x="800" y="424" width="40" height="40" as="geometry" />
        </mxCell>
        <mxCell id="wQTYGuOmZ5z0KffUW01f-427" value="" style="rounded=0;whiteSpace=wrap;html=1;" vertex="1" parent="1">
          <mxGeometry x="800" y="384" width="40" height="40" as="geometry" />
        </mxCell>
        <mxCell id="wQTYGuOmZ5z0KffUW01f-428" value="" style="rounded=0;whiteSpace=wrap;html=1;" vertex="1" parent="1">
          <mxGeometry x="800" y="344" width="40" height="40" as="geometry" />
        </mxCell>
        <mxCell id="wQTYGuOmZ5z0KffUW01f-429" value="" style="rounded=0;whiteSpace=wrap;html=1;" vertex="1" parent="1">
          <mxGeometry x="800" y="304" width="40" height="40" as="geometry" />
        </mxCell>
        <mxCell id="wQTYGuOmZ5z0KffUW01f-430" value="O" style="rounded=0;whiteSpace=wrap;html=1;" vertex="1" parent="1">
          <mxGeometry x="840" y="504" width="40" height="40" as="geometry" />
        </mxCell>
        <mxCell id="wQTYGuOmZ5z0KffUW01f-431" value="O" style="rounded=0;whiteSpace=wrap;html=1;" vertex="1" parent="1">
          <mxGeometry x="840" y="464" width="40" height="40" as="geometry" />
        </mxCell>
        <mxCell id="wQTYGuOmZ5z0KffUW01f-432" value="O" style="rounded=0;whiteSpace=wrap;html=1;" vertex="1" parent="1">
          <mxGeometry x="840" y="424" width="40" height="40" as="geometry" />
        </mxCell>
        <mxCell id="wQTYGuOmZ5z0KffUW01f-433" value="O" style="rounded=0;whiteSpace=wrap;html=1;" vertex="1" parent="1">
          <mxGeometry x="840" y="384" width="40" height="40" as="geometry" />
        </mxCell>
        <mxCell id="wQTYGuOmZ5z0KffUW01f-434" value="O" style="rounded=0;whiteSpace=wrap;html=1;" vertex="1" parent="1">
          <mxGeometry x="840" y="344" width="40" height="40" as="geometry" />
        </mxCell>
        <mxCell id="wQTYGuOmZ5z0KffUW01f-435" value="O" style="rounded=0;whiteSpace=wrap;html=1;" vertex="1" parent="1">
          <mxGeometry x="840" y="304" width="40" height="40" as="geometry" />
        </mxCell>
        <mxCell id="wQTYGuOmZ5z0KffUW01f-436" value="" style="rounded=0;whiteSpace=wrap;html=1;" vertex="1" parent="1">
          <mxGeometry x="920" y="504" width="40" height="40" as="geometry" />
        </mxCell>
        <mxCell id="wQTYGuOmZ5z0KffUW01f-437" value="" style="rounded=0;whiteSpace=wrap;html=1;" vertex="1" parent="1">
          <mxGeometry x="880" y="464" width="40" height="40" as="geometry" />
        </mxCell>
        <mxCell id="wQTYGuOmZ5z0KffUW01f-438" value="" style="rounded=0;whiteSpace=wrap;html=1;" vertex="1" parent="1">
          <mxGeometry x="880" y="424" width="40" height="40" as="geometry" />
        </mxCell>
        <mxCell id="wQTYGuOmZ5z0KffUW01f-439" value="" style="rounded=0;whiteSpace=wrap;html=1;" vertex="1" parent="1">
          <mxGeometry x="880" y="344" width="40" height="40" as="geometry" />
        </mxCell>
        <mxCell id="wQTYGuOmZ5z0KffUW01f-440" value="" style="rounded=0;whiteSpace=wrap;html=1;" vertex="1" parent="1">
          <mxGeometry x="880" y="304" width="40" height="40" as="geometry" />
        </mxCell>
        <mxCell id="wQTYGuOmZ5z0KffUW01f-441" value="O" style="rounded=0;whiteSpace=wrap;html=1;" vertex="1" parent="1">
          <mxGeometry x="880" y="504" width="40" height="40" as="geometry" />
        </mxCell>
        <mxCell id="wQTYGuOmZ5z0KffUW01f-442" value="O" style="rounded=0;whiteSpace=wrap;html=1;" vertex="1" parent="1">
          <mxGeometry x="920" y="464" width="40" height="40" as="geometry" />
        </mxCell>
        <mxCell id="wQTYGuOmZ5z0KffUW01f-443" value="O" style="rounded=0;whiteSpace=wrap;html=1;" vertex="1" parent="1">
          <mxGeometry x="920" y="424" width="40" height="40" as="geometry" />
        </mxCell>
        <mxCell id="wQTYGuOmZ5z0KffUW01f-444" value="O" style="rounded=0;whiteSpace=wrap;html=1;" vertex="1" parent="1">
          <mxGeometry x="920" y="384" width="40" height="40" as="geometry" />
        </mxCell>
        <mxCell id="wQTYGuOmZ5z0KffUW01f-445" value="" style="rounded=0;whiteSpace=wrap;html=1;" vertex="1" parent="1">
          <mxGeometry x="1000" y="304" width="40" height="40" as="geometry" />
        </mxCell>
        <mxCell id="wQTYGuOmZ5z0KffUW01f-446" value="O" style="rounded=0;whiteSpace=wrap;html=1;" vertex="1" parent="1">
          <mxGeometry x="960" y="504" width="40" height="40" as="geometry" />
        </mxCell>
        <mxCell id="wQTYGuOmZ5z0KffUW01f-447" value="" style="rounded=0;whiteSpace=wrap;html=1;" vertex="1" parent="1">
          <mxGeometry x="1040" y="464" width="40" height="40" as="geometry" />
        </mxCell>
        <mxCell id="wQTYGuOmZ5z0KffUW01f-448" value="" style="rounded=0;whiteSpace=wrap;html=1;" vertex="1" parent="1">
          <mxGeometry x="1000" y="424" width="40" height="40" as="geometry" />
        </mxCell>
        <mxCell id="wQTYGuOmZ5z0KffUW01f-449" value="" style="rounded=0;whiteSpace=wrap;html=1;" vertex="1" parent="1">
          <mxGeometry x="960" y="384" width="40" height="40" as="geometry" />
        </mxCell>
        <mxCell id="wQTYGuOmZ5z0KffUW01f-450" value="O" style="rounded=0;whiteSpace=wrap;html=1;" vertex="1" parent="1">
          <mxGeometry x="920" y="344" width="40" height="40" as="geometry" />
        </mxCell>
        <mxCell id="wQTYGuOmZ5z0KffUW01f-451" value="O" style="rounded=0;whiteSpace=wrap;html=1;" vertex="1" parent="1">
          <mxGeometry x="960" y="304" width="40" height="40" as="geometry" />
        </mxCell>
        <mxCell id="wQTYGuOmZ5z0KffUW01f-452" value="" style="rounded=0;whiteSpace=wrap;html=1;" vertex="1" parent="1">
          <mxGeometry x="1000" y="504" width="40" height="40" as="geometry" />
        </mxCell>
        <mxCell id="wQTYGuOmZ5z0KffUW01f-453" value="O" style="rounded=0;whiteSpace=wrap;html=1;" vertex="1" parent="1">
          <mxGeometry x="960" y="464" width="40" height="40" as="geometry" />
        </mxCell>
        <mxCell id="wQTYGuOmZ5z0KffUW01f-454" value="O" style="rounded=0;whiteSpace=wrap;html=1;" vertex="1" parent="1">
          <mxGeometry x="960" y="424" width="40" height="40" as="geometry" />
        </mxCell>
        <mxCell id="wQTYGuOmZ5z0KffUW01f-455" value="" style="rounded=0;whiteSpace=wrap;html=1;" vertex="1" parent="1">
          <mxGeometry x="1000" y="384" width="40" height="40" as="geometry" />
        </mxCell>
        <mxCell id="wQTYGuOmZ5z0KffUW01f-456" value="O" style="rounded=0;whiteSpace=wrap;html=1;" vertex="1" parent="1">
          <mxGeometry x="960" y="344" width="40" height="40" as="geometry" />
        </mxCell>
        <mxCell id="wQTYGuOmZ5z0KffUW01f-457" value="O" style="rounded=0;whiteSpace=wrap;html=1;" vertex="1" parent="1">
          <mxGeometry x="920" y="304" width="40" height="40" as="geometry" />
        </mxCell>
        <mxCell id="wQTYGuOmZ5z0KffUW01f-458" value="" style="rounded=0;whiteSpace=wrap;html=1;" vertex="1" parent="1">
          <mxGeometry x="1040" y="504" width="40" height="40" as="geometry" />
        </mxCell>
        <mxCell id="wQTYGuOmZ5z0KffUW01f-459" value="" style="rounded=0;whiteSpace=wrap;html=1;" vertex="1" parent="1">
          <mxGeometry x="1000" y="464" width="40" height="40" as="geometry" />
        </mxCell>
        <mxCell id="wQTYGuOmZ5z0KffUW01f-460" value="" style="rounded=0;whiteSpace=wrap;html=1;" vertex="1" parent="1">
          <mxGeometry x="1040" y="424" width="40" height="40" as="geometry" />
        </mxCell>
        <mxCell id="wQTYGuOmZ5z0KffUW01f-461" value="" style="rounded=0;whiteSpace=wrap;html=1;" vertex="1" parent="1">
          <mxGeometry x="1040" y="384" width="40" height="40" as="geometry" />
        </mxCell>
        <mxCell id="wQTYGuOmZ5z0KffUW01f-462" value="" style="rounded=0;whiteSpace=wrap;html=1;" vertex="1" parent="1">
          <mxGeometry x="1040" y="344" width="40" height="40" as="geometry" />
        </mxCell>
        <mxCell id="wQTYGuOmZ5z0KffUW01f-463" value="" style="rounded=0;whiteSpace=wrap;html=1;" vertex="1" parent="1">
          <mxGeometry x="1040" y="304" width="40" height="40" as="geometry" />
        </mxCell>
        <mxCell id="wQTYGuOmZ5z0KffUW01f-476" value="" style="rounded=0;whiteSpace=wrap;html=1;" vertex="1" parent="1">
          <mxGeometry x="1000" y="344" width="40" height="40" as="geometry" />
        </mxCell>
        <mxCell id="wQTYGuOmZ5z0KffUW01f-477" value="C MISOLIDIO (7b)&amp;nbsp; -&amp;gt; F Maggiore (V)" style="text;html=1;align=center;verticalAlign=middle;whiteSpace=wrap;rounded=0;" vertex="1" parent="1">
          <mxGeometry x="560" y="274" width="520" height="30" as="geometry" />
        </mxCell>
        <mxCell id="wQTYGuOmZ5z0KffUW01f-478" value="" style="rounded=0;whiteSpace=wrap;html=1;" vertex="1" parent="1">
          <mxGeometry x="920" y="114" width="40" height="40" as="geometry" />
        </mxCell>
        <mxCell id="wQTYGuOmZ5z0KffUW01f-479" value="" style="rounded=0;whiteSpace=wrap;html=1;" vertex="1" parent="1">
          <mxGeometry x="880" y="384" width="40" height="40" as="geometry" />
        </mxCell>
        <mxCell id="wQTYGuOmZ5z0KffUW01f-480" value="" style="rounded=0;whiteSpace=wrap;html=1;" vertex="1" parent="1">
          <mxGeometry x="326" y="657" width="40" height="40" as="geometry" />
        </mxCell>
        <mxCell id="wQTYGuOmZ5z0KffUW01f-481" value="" style="rounded=0;whiteSpace=wrap;html=1;" vertex="1" parent="1">
          <mxGeometry x="326" y="384" width="40" height="40" as="geometry" />
        </mxCell>
        <mxCell id="wQTYGuOmZ5z0KffUW01f-483" value="O" style="rounded=0;whiteSpace=wrap;html=1;" vertex="1" parent="1">
          <mxGeometry x="880" y="114" width="40" height="40" as="geometry" />
        </mxCell>
        <mxCell id="wQTYGuOmZ5z0KffUW01f-484" value="" style="rounded=0;whiteSpace=wrap;html=1;" vertex="1" parent="1">
          <mxGeometry x="560" y="777" width="40" height="40" as="geometry" />
        </mxCell>
        <mxCell id="wQTYGuOmZ5z0KffUW01f-485" value="" style="rounded=0;whiteSpace=wrap;html=1;" vertex="1" parent="1">
          <mxGeometry x="560" y="737" width="40" height="40" as="geometry" />
        </mxCell>
        <mxCell id="wQTYGuOmZ5z0KffUW01f-486" value="" style="rounded=0;whiteSpace=wrap;html=1;" vertex="1" parent="1">
          <mxGeometry x="560" y="697" width="40" height="40" as="geometry" />
        </mxCell>
        <mxCell id="wQTYGuOmZ5z0KffUW01f-487" value="" style="rounded=0;whiteSpace=wrap;html=1;" vertex="1" parent="1">
          <mxGeometry x="560" y="657" width="40" height="40" as="geometry" />
        </mxCell>
        <mxCell id="wQTYGuOmZ5z0KffUW01f-488" value="" style="rounded=0;whiteSpace=wrap;html=1;" vertex="1" parent="1">
          <mxGeometry x="560" y="617" width="40" height="40" as="geometry" />
        </mxCell>
        <mxCell id="wQTYGuOmZ5z0KffUW01f-489" value="" style="rounded=0;whiteSpace=wrap;html=1;" vertex="1" parent="1">
          <mxGeometry x="560" y="577" width="40" height="40" as="geometry" />
        </mxCell>
        <mxCell id="wQTYGuOmZ5z0KffUW01f-490" value="" style="rounded=0;whiteSpace=wrap;html=1;" vertex="1" parent="1">
          <mxGeometry x="600" y="777" width="40" height="40" as="geometry" />
        </mxCell>
        <mxCell id="wQTYGuOmZ5z0KffUW01f-491" value="" style="rounded=0;whiteSpace=wrap;html=1;" vertex="1" parent="1">
          <mxGeometry x="600" y="737" width="40" height="40" as="geometry" />
        </mxCell>
        <mxCell id="wQTYGuOmZ5z0KffUW01f-492" value="" style="rounded=0;whiteSpace=wrap;html=1;" vertex="1" parent="1">
          <mxGeometry x="600" y="697" width="40" height="40" as="geometry" />
        </mxCell>
        <mxCell id="wQTYGuOmZ5z0KffUW01f-493" value="" style="rounded=0;whiteSpace=wrap;html=1;" vertex="1" parent="1">
          <mxGeometry x="600" y="657" width="40" height="40" as="geometry" />
        </mxCell>
        <mxCell id="wQTYGuOmZ5z0KffUW01f-494" value="" style="rounded=0;whiteSpace=wrap;html=1;" vertex="1" parent="1">
          <mxGeometry x="600" y="617" width="40" height="40" as="geometry" />
        </mxCell>
        <mxCell id="wQTYGuOmZ5z0KffUW01f-495" value="" style="rounded=0;whiteSpace=wrap;html=1;" vertex="1" parent="1">
          <mxGeometry x="600" y="577" width="40" height="40" as="geometry" />
        </mxCell>
        <mxCell id="wQTYGuOmZ5z0KffUW01f-496" value="" style="rounded=0;whiteSpace=wrap;html=1;" vertex="1" parent="1">
          <mxGeometry x="640" y="777" width="40" height="40" as="geometry" />
        </mxCell>
        <mxCell id="wQTYGuOmZ5z0KffUW01f-497" value="" style="rounded=0;whiteSpace=wrap;html=1;" vertex="1" parent="1">
          <mxGeometry x="640" y="737" width="40" height="40" as="geometry" />
        </mxCell>
        <mxCell id="wQTYGuOmZ5z0KffUW01f-498" value="" style="rounded=0;whiteSpace=wrap;html=1;" vertex="1" parent="1">
          <mxGeometry x="640" y="697" width="40" height="40" as="geometry" />
        </mxCell>
        <mxCell id="wQTYGuOmZ5z0KffUW01f-499" value="" style="rounded=0;whiteSpace=wrap;html=1;" vertex="1" parent="1">
          <mxGeometry x="640" y="657" width="40" height="40" as="geometry" />
        </mxCell>
        <mxCell id="wQTYGuOmZ5z0KffUW01f-500" value="" style="rounded=0;whiteSpace=wrap;html=1;" vertex="1" parent="1">
          <mxGeometry x="640" y="617" width="40" height="40" as="geometry" />
        </mxCell>
        <mxCell id="wQTYGuOmZ5z0KffUW01f-501" value="" style="rounded=0;whiteSpace=wrap;html=1;" vertex="1" parent="1">
          <mxGeometry x="640" y="577" width="40" height="40" as="geometry" />
        </mxCell>
        <mxCell id="wQTYGuOmZ5z0KffUW01f-502" value="" style="rounded=0;whiteSpace=wrap;html=1;" vertex="1" parent="1">
          <mxGeometry x="680" y="777" width="40" height="40" as="geometry" />
        </mxCell>
        <mxCell id="wQTYGuOmZ5z0KffUW01f-503" value="" style="rounded=0;whiteSpace=wrap;html=1;" vertex="1" parent="1">
          <mxGeometry x="680" y="737" width="40" height="40" as="geometry" />
        </mxCell>
        <mxCell id="wQTYGuOmZ5z0KffUW01f-504" value="" style="rounded=0;whiteSpace=wrap;html=1;" vertex="1" parent="1">
          <mxGeometry x="680" y="697" width="40" height="40" as="geometry" />
        </mxCell>
        <mxCell id="wQTYGuOmZ5z0KffUW01f-505" value="" style="rounded=0;whiteSpace=wrap;html=1;" vertex="1" parent="1">
          <mxGeometry x="680" y="657" width="40" height="40" as="geometry" />
        </mxCell>
        <mxCell id="wQTYGuOmZ5z0KffUW01f-506" value="" style="rounded=0;whiteSpace=wrap;html=1;" vertex="1" parent="1">
          <mxGeometry x="680" y="617" width="40" height="40" as="geometry" />
        </mxCell>
        <mxCell id="wQTYGuOmZ5z0KffUW01f-507" value="" style="rounded=0;whiteSpace=wrap;html=1;" vertex="1" parent="1">
          <mxGeometry x="680" y="577" width="40" height="40" as="geometry" />
        </mxCell>
        <mxCell id="wQTYGuOmZ5z0KffUW01f-508" value="" style="rounded=0;whiteSpace=wrap;html=1;" vertex="1" parent="1">
          <mxGeometry x="720" y="777" width="40" height="40" as="geometry" />
        </mxCell>
        <mxCell id="wQTYGuOmZ5z0KffUW01f-509" value="" style="rounded=0;whiteSpace=wrap;html=1;" vertex="1" parent="1">
          <mxGeometry x="720" y="737" width="40" height="40" as="geometry" />
        </mxCell>
        <mxCell id="wQTYGuOmZ5z0KffUW01f-510" value="" style="rounded=0;whiteSpace=wrap;html=1;" vertex="1" parent="1">
          <mxGeometry x="720" y="697" width="40" height="40" as="geometry" />
        </mxCell>
        <mxCell id="wQTYGuOmZ5z0KffUW01f-511" value="" style="rounded=0;whiteSpace=wrap;html=1;" vertex="1" parent="1">
          <mxGeometry x="720" y="657" width="40" height="40" as="geometry" />
        </mxCell>
        <mxCell id="wQTYGuOmZ5z0KffUW01f-512" value="" style="rounded=0;whiteSpace=wrap;html=1;" vertex="1" parent="1">
          <mxGeometry x="720" y="617" width="40" height="40" as="geometry" />
        </mxCell>
        <mxCell id="wQTYGuOmZ5z0KffUW01f-513" value="" style="rounded=0;whiteSpace=wrap;html=1;" vertex="1" parent="1">
          <mxGeometry x="720" y="577" width="40" height="40" as="geometry" />
        </mxCell>
        <mxCell id="wQTYGuOmZ5z0KffUW01f-514" value="" style="rounded=0;whiteSpace=wrap;html=1;" vertex="1" parent="1">
          <mxGeometry x="760" y="777" width="40" height="40" as="geometry" />
        </mxCell>
        <mxCell id="wQTYGuOmZ5z0KffUW01f-515" value="" style="rounded=0;whiteSpace=wrap;html=1;" vertex="1" parent="1">
          <mxGeometry x="760" y="737" width="40" height="40" as="geometry" />
        </mxCell>
        <mxCell id="wQTYGuOmZ5z0KffUW01f-516" value="" style="rounded=0;whiteSpace=wrap;html=1;" vertex="1" parent="1">
          <mxGeometry x="760" y="697" width="40" height="40" as="geometry" />
        </mxCell>
        <mxCell id="wQTYGuOmZ5z0KffUW01f-517" value="" style="rounded=0;whiteSpace=wrap;html=1;" vertex="1" parent="1">
          <mxGeometry x="760" y="657" width="40" height="40" as="geometry" />
        </mxCell>
        <mxCell id="wQTYGuOmZ5z0KffUW01f-518" value="" style="rounded=0;whiteSpace=wrap;html=1;" vertex="1" parent="1">
          <mxGeometry x="760" y="617" width="40" height="40" as="geometry" />
        </mxCell>
        <mxCell id="wQTYGuOmZ5z0KffUW01f-519" value="" style="rounded=0;whiteSpace=wrap;html=1;" vertex="1" parent="1">
          <mxGeometry x="760" y="577" width="40" height="40" as="geometry" />
        </mxCell>
        <mxCell id="wQTYGuOmZ5z0KffUW01f-520" value="" style="rounded=0;whiteSpace=wrap;html=1;" vertex="1" parent="1">
          <mxGeometry x="800" y="777" width="40" height="40" as="geometry" />
        </mxCell>
        <mxCell id="wQTYGuOmZ5z0KffUW01f-521" value="" style="rounded=0;whiteSpace=wrap;html=1;" vertex="1" parent="1">
          <mxGeometry x="800" y="737" width="40" height="40" as="geometry" />
        </mxCell>
        <mxCell id="wQTYGuOmZ5z0KffUW01f-522" value="" style="rounded=0;whiteSpace=wrap;html=1;" vertex="1" parent="1">
          <mxGeometry x="800" y="697" width="40" height="40" as="geometry" />
        </mxCell>
        <mxCell id="wQTYGuOmZ5z0KffUW01f-523" value="" style="rounded=0;whiteSpace=wrap;html=1;" vertex="1" parent="1">
          <mxGeometry x="800" y="657" width="40" height="40" as="geometry" />
        </mxCell>
        <mxCell id="wQTYGuOmZ5z0KffUW01f-524" value="" style="rounded=0;whiteSpace=wrap;html=1;" vertex="1" parent="1">
          <mxGeometry x="800" y="617" width="40" height="40" as="geometry" />
        </mxCell>
        <mxCell id="wQTYGuOmZ5z0KffUW01f-525" value="" style="rounded=0;whiteSpace=wrap;html=1;" vertex="1" parent="1">
          <mxGeometry x="800" y="577" width="40" height="40" as="geometry" />
        </mxCell>
        <mxCell id="wQTYGuOmZ5z0KffUW01f-526" value="O" style="rounded=0;whiteSpace=wrap;html=1;" vertex="1" parent="1">
          <mxGeometry x="840" y="777" width="40" height="40" as="geometry" />
        </mxCell>
        <mxCell id="wQTYGuOmZ5z0KffUW01f-527" value="O" style="rounded=0;whiteSpace=wrap;html=1;" vertex="1" parent="1">
          <mxGeometry x="840" y="737" width="40" height="40" as="geometry" />
        </mxCell>
        <mxCell id="wQTYGuOmZ5z0KffUW01f-528" value="O" style="rounded=0;whiteSpace=wrap;html=1;" vertex="1" parent="1">
          <mxGeometry x="840" y="697" width="40" height="40" as="geometry" />
        </mxCell>
        <mxCell id="wQTYGuOmZ5z0KffUW01f-529" value="O" style="rounded=0;whiteSpace=wrap;html=1;" vertex="1" parent="1">
          <mxGeometry x="840" y="657" width="40" height="40" as="geometry" />
        </mxCell>
        <mxCell id="wQTYGuOmZ5z0KffUW01f-530" value="O" style="rounded=0;whiteSpace=wrap;html=1;" vertex="1" parent="1">
          <mxGeometry x="840" y="617" width="40" height="40" as="geometry" />
        </mxCell>
        <mxCell id="wQTYGuOmZ5z0KffUW01f-531" value="O" style="rounded=0;whiteSpace=wrap;html=1;" vertex="1" parent="1">
          <mxGeometry x="840" y="577" width="40" height="40" as="geometry" />
        </mxCell>
        <mxCell id="wQTYGuOmZ5z0KffUW01f-532" value="" style="rounded=0;whiteSpace=wrap;html=1;" vertex="1" parent="1">
          <mxGeometry x="880" y="777" width="40" height="40" as="geometry" />
        </mxCell>
        <mxCell id="wQTYGuOmZ5z0KffUW01f-533" value="" style="rounded=0;whiteSpace=wrap;html=1;" vertex="1" parent="1">
          <mxGeometry x="880" y="737" width="40" height="40" as="geometry" />
        </mxCell>
        <mxCell id="wQTYGuOmZ5z0KffUW01f-534" value="" style="rounded=0;whiteSpace=wrap;html=1;" vertex="1" parent="1">
          <mxGeometry x="880" y="697" width="40" height="40" as="geometry" />
        </mxCell>
        <mxCell id="wQTYGuOmZ5z0KffUW01f-535" value="" style="rounded=0;whiteSpace=wrap;html=1;" vertex="1" parent="1">
          <mxGeometry x="920" y="617" width="40" height="40" as="geometry" />
        </mxCell>
        <mxCell id="wQTYGuOmZ5z0KffUW01f-536" value="" style="rounded=0;whiteSpace=wrap;html=1;" vertex="1" parent="1">
          <mxGeometry x="880" y="577" width="40" height="40" as="geometry" />
        </mxCell>
        <mxCell id="wQTYGuOmZ5z0KffUW01f-537" value="O" style="rounded=0;whiteSpace=wrap;html=1;" vertex="1" parent="1">
          <mxGeometry x="920" y="777" width="40" height="40" as="geometry" />
        </mxCell>
        <mxCell id="wQTYGuOmZ5z0KffUW01f-538" value="O" style="rounded=0;whiteSpace=wrap;html=1;" vertex="1" parent="1">
          <mxGeometry x="920" y="737" width="40" height="40" as="geometry" />
        </mxCell>
        <mxCell id="wQTYGuOmZ5z0KffUW01f-539" value="O" style="rounded=0;whiteSpace=wrap;html=1;" vertex="1" parent="1">
          <mxGeometry x="920" y="697" width="40" height="40" as="geometry" />
        </mxCell>
        <mxCell id="wQTYGuOmZ5z0KffUW01f-540" value="O" style="rounded=0;whiteSpace=wrap;html=1;" vertex="1" parent="1">
          <mxGeometry x="920" y="657" width="40" height="40" as="geometry" />
        </mxCell>
        <mxCell id="wQTYGuOmZ5z0KffUW01f-541" value="" style="rounded=0;whiteSpace=wrap;html=1;" vertex="1" parent="1">
          <mxGeometry x="1000" y="577" width="40" height="40" as="geometry" />
        </mxCell>
        <mxCell id="wQTYGuOmZ5z0KffUW01f-542" value="O" style="rounded=0;whiteSpace=wrap;html=1;" vertex="1" parent="1">
          <mxGeometry x="960" y="777" width="40" height="40" as="geometry" />
        </mxCell>
        <mxCell id="wQTYGuOmZ5z0KffUW01f-543" value="" style="rounded=0;whiteSpace=wrap;html=1;" vertex="1" parent="1">
          <mxGeometry x="1040" y="737" width="40" height="40" as="geometry" />
        </mxCell>
        <mxCell id="wQTYGuOmZ5z0KffUW01f-544" value="" style="rounded=0;whiteSpace=wrap;html=1;" vertex="1" parent="1">
          <mxGeometry x="960" y="697" width="40" height="40" as="geometry" />
        </mxCell>
        <mxCell id="wQTYGuOmZ5z0KffUW01f-545" value="" style="rounded=0;whiteSpace=wrap;html=1;" vertex="1" parent="1">
          <mxGeometry x="960" y="657" width="40" height="40" as="geometry" />
        </mxCell>
        <mxCell id="wQTYGuOmZ5z0KffUW01f-546" value="O" style="rounded=0;whiteSpace=wrap;html=1;" vertex="1" parent="1">
          <mxGeometry x="880" y="617" width="40" height="40" as="geometry" />
        </mxCell>
        <mxCell id="wQTYGuOmZ5z0KffUW01f-547" value="O" style="rounded=0;whiteSpace=wrap;html=1;" vertex="1" parent="1">
          <mxGeometry x="960" y="577" width="40" height="40" as="geometry" />
        </mxCell>
        <mxCell id="wQTYGuOmZ5z0KffUW01f-548" value="" style="rounded=0;whiteSpace=wrap;html=1;" vertex="1" parent="1">
          <mxGeometry x="1000" y="777" width="40" height="40" as="geometry" />
        </mxCell>
        <mxCell id="wQTYGuOmZ5z0KffUW01f-549" value="O" style="rounded=0;whiteSpace=wrap;html=1;" vertex="1" parent="1">
          <mxGeometry x="960" y="737" width="40" height="40" as="geometry" />
        </mxCell>
        <mxCell id="wQTYGuOmZ5z0KffUW01f-550" value="O" style="rounded=0;whiteSpace=wrap;html=1;" vertex="1" parent="1">
          <mxGeometry x="1000" y="697" width="40" height="40" as="geometry" />
        </mxCell>
        <mxCell id="wQTYGuOmZ5z0KffUW01f-551" value="" style="rounded=0;whiteSpace=wrap;html=1;" vertex="1" parent="1">
          <mxGeometry x="1000" y="657" width="40" height="40" as="geometry" />
        </mxCell>
        <mxCell id="wQTYGuOmZ5z0KffUW01f-552" value="O" style="rounded=0;whiteSpace=wrap;html=1;" vertex="1" parent="1">
          <mxGeometry x="960" y="617" width="40" height="40" as="geometry" />
        </mxCell>
        <mxCell id="wQTYGuOmZ5z0KffUW01f-553" value="O" style="rounded=0;whiteSpace=wrap;html=1;" vertex="1" parent="1">
          <mxGeometry x="920" y="577" width="40" height="40" as="geometry" />
        </mxCell>
        <mxCell id="wQTYGuOmZ5z0KffUW01f-554" value="" style="rounded=0;whiteSpace=wrap;html=1;" vertex="1" parent="1">
          <mxGeometry x="1040" y="777" width="40" height="40" as="geometry" />
        </mxCell>
        <mxCell id="wQTYGuOmZ5z0KffUW01f-555" value="" style="rounded=0;whiteSpace=wrap;html=1;" vertex="1" parent="1">
          <mxGeometry x="1000" y="737" width="40" height="40" as="geometry" />
        </mxCell>
        <mxCell id="wQTYGuOmZ5z0KffUW01f-556" value="" style="rounded=0;whiteSpace=wrap;html=1;" vertex="1" parent="1">
          <mxGeometry x="1040" y="697" width="40" height="40" as="geometry" />
        </mxCell>
        <mxCell id="wQTYGuOmZ5z0KffUW01f-557" value="" style="rounded=0;whiteSpace=wrap;html=1;" vertex="1" parent="1">
          <mxGeometry x="1040" y="657" width="40" height="40" as="geometry" />
        </mxCell>
        <mxCell id="wQTYGuOmZ5z0KffUW01f-558" value="" style="rounded=0;whiteSpace=wrap;html=1;" vertex="1" parent="1">
          <mxGeometry x="1040" y="617" width="40" height="40" as="geometry" />
        </mxCell>
        <mxCell id="wQTYGuOmZ5z0KffUW01f-559" value="" style="rounded=0;whiteSpace=wrap;html=1;" vertex="1" parent="1">
          <mxGeometry x="1040" y="577" width="40" height="40" as="geometry" />
        </mxCell>
        <mxCell id="wQTYGuOmZ5z0KffUW01f-572" value="" style="rounded=0;whiteSpace=wrap;html=1;" vertex="1" parent="1">
          <mxGeometry x="1000" y="617" width="40" height="40" as="geometry" />
        </mxCell>
        <mxCell id="wQTYGuOmZ5z0KffUW01f-573" value="C EOLIO (3b 6b 7b Cm Naturale)&amp;nbsp; -&amp;gt; Eb Maggiore (VI)" style="text;html=1;align=center;verticalAlign=middle;whiteSpace=wrap;rounded=0;" vertex="1" parent="1">
          <mxGeometry x="560" y="547" width="520" height="30" as="geometry" />
        </mxCell>
        <mxCell id="wQTYGuOmZ5z0KffUW01f-574" value="" style="rounded=0;whiteSpace=wrap;html=1;" vertex="1" parent="1">
          <mxGeometry x="880" y="657" width="40" height="40" as="geometry" />
        </mxCell>
        <mxCell id="wQTYGuOmZ5z0KffUW01f-576" value="" style="rounded=0;whiteSpace=wrap;html=1;" vertex="1" parent="1">
          <mxGeometry x="240" y="1070" width="40" height="40" as="geometry" />
        </mxCell>
        <mxCell id="wQTYGuOmZ5z0KffUW01f-577" value="" style="rounded=0;whiteSpace=wrap;html=1;" vertex="1" parent="1">
          <mxGeometry x="240" y="1030" width="40" height="40" as="geometry" />
        </mxCell>
        <mxCell id="wQTYGuOmZ5z0KffUW01f-578" value="" style="rounded=0;whiteSpace=wrap;html=1;" vertex="1" parent="1">
          <mxGeometry x="240" y="990" width="40" height="40" as="geometry" />
        </mxCell>
        <mxCell id="wQTYGuOmZ5z0KffUW01f-579" value="" style="rounded=0;whiteSpace=wrap;html=1;" vertex="1" parent="1">
          <mxGeometry x="240" y="950" width="40" height="40" as="geometry" />
        </mxCell>
        <mxCell id="wQTYGuOmZ5z0KffUW01f-580" value="" style="rounded=0;whiteSpace=wrap;html=1;" vertex="1" parent="1">
          <mxGeometry x="240" y="910" width="40" height="40" as="geometry" />
        </mxCell>
        <mxCell id="wQTYGuOmZ5z0KffUW01f-581" value="" style="rounded=0;whiteSpace=wrap;html=1;" vertex="1" parent="1">
          <mxGeometry x="240" y="870" width="40" height="40" as="geometry" />
        </mxCell>
        <mxCell id="wQTYGuOmZ5z0KffUW01f-582" value="" style="rounded=0;whiteSpace=wrap;html=1;" vertex="1" parent="1">
          <mxGeometry x="280" y="1070" width="40" height="40" as="geometry" />
        </mxCell>
        <mxCell id="wQTYGuOmZ5z0KffUW01f-583" value="" style="rounded=0;whiteSpace=wrap;html=1;" vertex="1" parent="1">
          <mxGeometry x="280" y="1030" width="40" height="40" as="geometry" />
        </mxCell>
        <mxCell id="wQTYGuOmZ5z0KffUW01f-584" value="" style="rounded=0;whiteSpace=wrap;html=1;" vertex="1" parent="1">
          <mxGeometry x="280" y="990" width="40" height="40" as="geometry" />
        </mxCell>
        <mxCell id="wQTYGuOmZ5z0KffUW01f-585" value="" style="rounded=0;whiteSpace=wrap;html=1;" vertex="1" parent="1">
          <mxGeometry x="280" y="950" width="40" height="40" as="geometry" />
        </mxCell>
        <mxCell id="wQTYGuOmZ5z0KffUW01f-586" value="" style="rounded=0;whiteSpace=wrap;html=1;" vertex="1" parent="1">
          <mxGeometry x="280" y="910" width="40" height="40" as="geometry" />
        </mxCell>
        <mxCell id="wQTYGuOmZ5z0KffUW01f-587" value="" style="rounded=0;whiteSpace=wrap;html=1;" vertex="1" parent="1">
          <mxGeometry x="280" y="870" width="40" height="40" as="geometry" />
        </mxCell>
        <mxCell id="wQTYGuOmZ5z0KffUW01f-588" value="" style="rounded=0;whiteSpace=wrap;html=1;" vertex="1" parent="1">
          <mxGeometry x="320" y="1070" width="40" height="40" as="geometry" />
        </mxCell>
        <mxCell id="wQTYGuOmZ5z0KffUW01f-589" value="" style="rounded=0;whiteSpace=wrap;html=1;" vertex="1" parent="1">
          <mxGeometry x="320" y="1030" width="40" height="40" as="geometry" />
        </mxCell>
        <mxCell id="wQTYGuOmZ5z0KffUW01f-590" value="" style="rounded=0;whiteSpace=wrap;html=1;" vertex="1" parent="1">
          <mxGeometry x="320" y="990" width="40" height="40" as="geometry" />
        </mxCell>
        <mxCell id="wQTYGuOmZ5z0KffUW01f-591" value="" style="rounded=0;whiteSpace=wrap;html=1;" vertex="1" parent="1">
          <mxGeometry x="320" y="950" width="40" height="40" as="geometry" />
        </mxCell>
        <mxCell id="wQTYGuOmZ5z0KffUW01f-592" value="" style="rounded=0;whiteSpace=wrap;html=1;" vertex="1" parent="1">
          <mxGeometry x="320" y="910" width="40" height="40" as="geometry" />
        </mxCell>
        <mxCell id="wQTYGuOmZ5z0KffUW01f-593" value="" style="rounded=0;whiteSpace=wrap;html=1;" vertex="1" parent="1">
          <mxGeometry x="320" y="870" width="40" height="40" as="geometry" />
        </mxCell>
        <mxCell id="wQTYGuOmZ5z0KffUW01f-594" value="" style="rounded=0;whiteSpace=wrap;html=1;" vertex="1" parent="1">
          <mxGeometry x="360" y="1070" width="40" height="40" as="geometry" />
        </mxCell>
        <mxCell id="wQTYGuOmZ5z0KffUW01f-595" value="" style="rounded=0;whiteSpace=wrap;html=1;" vertex="1" parent="1">
          <mxGeometry x="360" y="1030" width="40" height="40" as="geometry" />
        </mxCell>
        <mxCell id="wQTYGuOmZ5z0KffUW01f-596" value="" style="rounded=0;whiteSpace=wrap;html=1;" vertex="1" parent="1">
          <mxGeometry x="360" y="990" width="40" height="40" as="geometry" />
        </mxCell>
        <mxCell id="wQTYGuOmZ5z0KffUW01f-597" value="" style="rounded=0;whiteSpace=wrap;html=1;" vertex="1" parent="1">
          <mxGeometry x="360" y="950" width="40" height="40" as="geometry" />
        </mxCell>
        <mxCell id="wQTYGuOmZ5z0KffUW01f-598" value="" style="rounded=0;whiteSpace=wrap;html=1;" vertex="1" parent="1">
          <mxGeometry x="360" y="910" width="40" height="40" as="geometry" />
        </mxCell>
        <mxCell id="wQTYGuOmZ5z0KffUW01f-599" value="" style="rounded=0;whiteSpace=wrap;html=1;" vertex="1" parent="1">
          <mxGeometry x="360" y="870" width="40" height="40" as="geometry" />
        </mxCell>
        <mxCell id="wQTYGuOmZ5z0KffUW01f-600" value="" style="rounded=0;whiteSpace=wrap;html=1;" vertex="1" parent="1">
          <mxGeometry x="400" y="1070" width="40" height="40" as="geometry" />
        </mxCell>
        <mxCell id="wQTYGuOmZ5z0KffUW01f-601" value="" style="rounded=0;whiteSpace=wrap;html=1;" vertex="1" parent="1">
          <mxGeometry x="400" y="1030" width="40" height="40" as="geometry" />
        </mxCell>
        <mxCell id="wQTYGuOmZ5z0KffUW01f-602" value="" style="rounded=0;whiteSpace=wrap;html=1;" vertex="1" parent="1">
          <mxGeometry x="400" y="990" width="40" height="40" as="geometry" />
        </mxCell>
        <mxCell id="wQTYGuOmZ5z0KffUW01f-603" value="" style="rounded=0;whiteSpace=wrap;html=1;" vertex="1" parent="1">
          <mxGeometry x="400" y="950" width="40" height="40" as="geometry" />
        </mxCell>
        <mxCell id="wQTYGuOmZ5z0KffUW01f-604" value="" style="rounded=0;whiteSpace=wrap;html=1;" vertex="1" parent="1">
          <mxGeometry x="400" y="910" width="40" height="40" as="geometry" />
        </mxCell>
        <mxCell id="wQTYGuOmZ5z0KffUW01f-605" value="" style="rounded=0;whiteSpace=wrap;html=1;" vertex="1" parent="1">
          <mxGeometry x="400" y="870" width="40" height="40" as="geometry" />
        </mxCell>
        <mxCell id="wQTYGuOmZ5z0KffUW01f-606" value="" style="rounded=0;whiteSpace=wrap;html=1;" vertex="1" parent="1">
          <mxGeometry x="440" y="1070" width="40" height="40" as="geometry" />
        </mxCell>
        <mxCell id="wQTYGuOmZ5z0KffUW01f-607" value="" style="rounded=0;whiteSpace=wrap;html=1;" vertex="1" parent="1">
          <mxGeometry x="440" y="1030" width="40" height="40" as="geometry" />
        </mxCell>
        <mxCell id="wQTYGuOmZ5z0KffUW01f-608" value="" style="rounded=0;whiteSpace=wrap;html=1;" vertex="1" parent="1">
          <mxGeometry x="440" y="990" width="40" height="40" as="geometry" />
        </mxCell>
        <mxCell id="wQTYGuOmZ5z0KffUW01f-609" value="" style="rounded=0;whiteSpace=wrap;html=1;" vertex="1" parent="1">
          <mxGeometry x="440" y="950" width="40" height="40" as="geometry" />
        </mxCell>
        <mxCell id="wQTYGuOmZ5z0KffUW01f-610" value="" style="rounded=0;whiteSpace=wrap;html=1;" vertex="1" parent="1">
          <mxGeometry x="440" y="910" width="40" height="40" as="geometry" />
        </mxCell>
        <mxCell id="wQTYGuOmZ5z0KffUW01f-611" value="" style="rounded=0;whiteSpace=wrap;html=1;" vertex="1" parent="1">
          <mxGeometry x="440" y="870" width="40" height="40" as="geometry" />
        </mxCell>
        <mxCell id="wQTYGuOmZ5z0KffUW01f-612" value="" style="rounded=0;whiteSpace=wrap;html=1;" vertex="1" parent="1">
          <mxGeometry x="480" y="1070" width="40" height="40" as="geometry" />
        </mxCell>
        <mxCell id="wQTYGuOmZ5z0KffUW01f-613" value="" style="rounded=0;whiteSpace=wrap;html=1;" vertex="1" parent="1">
          <mxGeometry x="480" y="1030" width="40" height="40" as="geometry" />
        </mxCell>
        <mxCell id="wQTYGuOmZ5z0KffUW01f-614" value="" style="rounded=0;whiteSpace=wrap;html=1;" vertex="1" parent="1">
          <mxGeometry x="480" y="990" width="40" height="40" as="geometry" />
        </mxCell>
        <mxCell id="wQTYGuOmZ5z0KffUW01f-615" value="" style="rounded=0;whiteSpace=wrap;html=1;" vertex="1" parent="1">
          <mxGeometry x="480" y="950" width="40" height="40" as="geometry" />
        </mxCell>
        <mxCell id="wQTYGuOmZ5z0KffUW01f-616" value="" style="rounded=0;whiteSpace=wrap;html=1;" vertex="1" parent="1">
          <mxGeometry x="480" y="910" width="40" height="40" as="geometry" />
        </mxCell>
        <mxCell id="wQTYGuOmZ5z0KffUW01f-617" value="" style="rounded=0;whiteSpace=wrap;html=1;" vertex="1" parent="1">
          <mxGeometry x="480" y="870" width="40" height="40" as="geometry" />
        </mxCell>
        <mxCell id="wQTYGuOmZ5z0KffUW01f-618" value="O" style="rounded=0;whiteSpace=wrap;html=1;" vertex="1" parent="1">
          <mxGeometry x="520" y="1070" width="40" height="40" as="geometry" />
        </mxCell>
        <mxCell id="wQTYGuOmZ5z0KffUW01f-619" value="O" style="rounded=0;whiteSpace=wrap;html=1;" vertex="1" parent="1">
          <mxGeometry x="520" y="1030" width="40" height="40" as="geometry" />
        </mxCell>
        <mxCell id="wQTYGuOmZ5z0KffUW01f-620" value="O" style="rounded=0;whiteSpace=wrap;html=1;" vertex="1" parent="1">
          <mxGeometry x="520" y="990" width="40" height="40" as="geometry" />
        </mxCell>
        <mxCell id="wQTYGuOmZ5z0KffUW01f-621" value="O" style="rounded=0;whiteSpace=wrap;html=1;" vertex="1" parent="1">
          <mxGeometry x="520" y="950" width="40" height="40" as="geometry" />
        </mxCell>
        <mxCell id="wQTYGuOmZ5z0KffUW01f-622" value="" style="rounded=0;whiteSpace=wrap;html=1;" vertex="1" parent="1">
          <mxGeometry x="600" y="870" width="40" height="40" as="geometry" />
        </mxCell>
        <mxCell id="wQTYGuOmZ5z0KffUW01f-623" value="O" style="rounded=0;whiteSpace=wrap;html=1;" vertex="1" parent="1">
          <mxGeometry x="520" y="870" width="40" height="40" as="geometry" />
        </mxCell>
        <mxCell id="wQTYGuOmZ5z0KffUW01f-624" value="" style="rounded=0;whiteSpace=wrap;html=1;" vertex="1" parent="1">
          <mxGeometry x="600" y="1070" width="40" height="40" as="geometry" />
        </mxCell>
        <mxCell id="wQTYGuOmZ5z0KffUW01f-625" value="" style="rounded=0;whiteSpace=wrap;html=1;" vertex="1" parent="1">
          <mxGeometry x="600" y="1030" width="40" height="40" as="geometry" />
        </mxCell>
        <mxCell id="wQTYGuOmZ5z0KffUW01f-626" value="" style="rounded=0;whiteSpace=wrap;html=1;" vertex="1" parent="1">
          <mxGeometry x="560" y="990" width="40" height="40" as="geometry" />
        </mxCell>
        <mxCell id="wQTYGuOmZ5z0KffUW01f-627" value="" style="rounded=0;whiteSpace=wrap;html=1;" vertex="1" parent="1">
          <mxGeometry x="600" y="910" width="40" height="40" as="geometry" />
        </mxCell>
        <mxCell id="wQTYGuOmZ5z0KffUW01f-628" value="" style="rounded=0;whiteSpace=wrap;html=1;" vertex="1" parent="1">
          <mxGeometry x="520" y="910" width="40" height="40" as="geometry" />
        </mxCell>
        <mxCell id="wQTYGuOmZ5z0KffUW01f-629" value="O" style="rounded=0;whiteSpace=wrap;html=1;" vertex="1" parent="1">
          <mxGeometry x="560" y="1070" width="40" height="40" as="geometry" />
        </mxCell>
        <mxCell id="wQTYGuOmZ5z0KffUW01f-630" value="O" style="rounded=0;whiteSpace=wrap;html=1;" vertex="1" parent="1">
          <mxGeometry x="560" y="1030" width="40" height="40" as="geometry" />
        </mxCell>
        <mxCell id="wQTYGuOmZ5z0KffUW01f-631" value="O" style="rounded=0;whiteSpace=wrap;html=1;" vertex="1" parent="1">
          <mxGeometry x="600" y="990" width="40" height="40" as="geometry" />
        </mxCell>
        <mxCell id="wQTYGuOmZ5z0KffUW01f-632" value="O" style="rounded=0;whiteSpace=wrap;html=1;" vertex="1" parent="1">
          <mxGeometry x="640" y="950" width="40" height="40" as="geometry" />
        </mxCell>
        <mxCell id="wQTYGuOmZ5z0KffUW01f-633" value="" style="rounded=0;whiteSpace=wrap;html=1;" vertex="1" parent="1">
          <mxGeometry x="680" y="870" width="40" height="40" as="geometry" />
        </mxCell>
        <mxCell id="wQTYGuOmZ5z0KffUW01f-634" value="O" style="rounded=0;whiteSpace=wrap;html=1;" vertex="1" parent="1">
          <mxGeometry x="640" y="1070" width="40" height="40" as="geometry" />
        </mxCell>
        <mxCell id="wQTYGuOmZ5z0KffUW01f-635" value="" style="rounded=0;whiteSpace=wrap;html=1;" vertex="1" parent="1">
          <mxGeometry x="720" y="1030" width="40" height="40" as="geometry" />
        </mxCell>
        <mxCell id="wQTYGuOmZ5z0KffUW01f-636" value="" style="rounded=0;whiteSpace=wrap;html=1;" vertex="1" parent="1">
          <mxGeometry x="680" y="990" width="40" height="40" as="geometry" />
        </mxCell>
        <mxCell id="wQTYGuOmZ5z0KffUW01f-637" value="O" style="rounded=0;whiteSpace=wrap;html=1;" vertex="1" parent="1">
          <mxGeometry x="600" y="950" width="40" height="40" as="geometry" />
        </mxCell>
        <mxCell id="wQTYGuOmZ5z0KffUW01f-638" value="O" style="rounded=0;whiteSpace=wrap;html=1;" vertex="1" parent="1">
          <mxGeometry x="560" y="910" width="40" height="40" as="geometry" />
        </mxCell>
        <mxCell id="wQTYGuOmZ5z0KffUW01f-639" value="O" style="rounded=0;whiteSpace=wrap;html=1;" vertex="1" parent="1">
          <mxGeometry x="640" y="870" width="40" height="40" as="geometry" />
        </mxCell>
        <mxCell id="wQTYGuOmZ5z0KffUW01f-640" value="" style="rounded=0;whiteSpace=wrap;html=1;" vertex="1" parent="1">
          <mxGeometry x="680" y="1070" width="40" height="40" as="geometry" />
        </mxCell>
        <mxCell id="wQTYGuOmZ5z0KffUW01f-641" value="O" style="rounded=0;whiteSpace=wrap;html=1;" vertex="1" parent="1">
          <mxGeometry x="640" y="1030" width="40" height="40" as="geometry" />
        </mxCell>
        <mxCell id="wQTYGuOmZ5z0KffUW01f-642" value="O" style="rounded=0;whiteSpace=wrap;html=1;" vertex="1" parent="1">
          <mxGeometry x="640" y="990" width="40" height="40" as="geometry" />
        </mxCell>
        <mxCell id="wQTYGuOmZ5z0KffUW01f-643" value="" style="rounded=0;whiteSpace=wrap;html=1;" vertex="1" parent="1">
          <mxGeometry x="680" y="950" width="40" height="40" as="geometry" />
        </mxCell>
        <mxCell id="wQTYGuOmZ5z0KffUW01f-644" value="O" style="rounded=0;whiteSpace=wrap;html=1;" vertex="1" parent="1">
          <mxGeometry x="640" y="910" width="40" height="40" as="geometry" />
        </mxCell>
        <mxCell id="wQTYGuOmZ5z0KffUW01f-645" value="O" style="rounded=0;whiteSpace=wrap;html=1;" vertex="1" parent="1">
          <mxGeometry x="560" y="870" width="40" height="40" as="geometry" />
        </mxCell>
        <mxCell id="wQTYGuOmZ5z0KffUW01f-646" value="" style="rounded=0;whiteSpace=wrap;html=1;" vertex="1" parent="1">
          <mxGeometry x="720" y="1070" width="40" height="40" as="geometry" />
        </mxCell>
        <mxCell id="wQTYGuOmZ5z0KffUW01f-647" value="" style="rounded=0;whiteSpace=wrap;html=1;" vertex="1" parent="1">
          <mxGeometry x="680" y="1030" width="40" height="40" as="geometry" />
        </mxCell>
        <mxCell id="wQTYGuOmZ5z0KffUW01f-648" value="" style="rounded=0;whiteSpace=wrap;html=1;" vertex="1" parent="1">
          <mxGeometry x="720" y="990" width="40" height="40" as="geometry" />
        </mxCell>
        <mxCell id="wQTYGuOmZ5z0KffUW01f-649" value="" style="rounded=0;whiteSpace=wrap;html=1;" vertex="1" parent="1">
          <mxGeometry x="720" y="950" width="40" height="40" as="geometry" />
        </mxCell>
        <mxCell id="wQTYGuOmZ5z0KffUW01f-650" value="" style="rounded=0;whiteSpace=wrap;html=1;" vertex="1" parent="1">
          <mxGeometry x="720" y="910" width="40" height="40" as="geometry" />
        </mxCell>
        <mxCell id="wQTYGuOmZ5z0KffUW01f-651" value="" style="rounded=0;whiteSpace=wrap;html=1;" vertex="1" parent="1">
          <mxGeometry x="720" y="870" width="40" height="40" as="geometry" />
        </mxCell>
        <mxCell id="wQTYGuOmZ5z0KffUW01f-652" value="" style="rounded=0;whiteSpace=wrap;html=1;" vertex="1" parent="1">
          <mxGeometry x="760" y="1070" width="40" height="40" as="geometry" />
        </mxCell>
        <mxCell id="wQTYGuOmZ5z0KffUW01f-653" value="" style="rounded=0;whiteSpace=wrap;html=1;" vertex="1" parent="1">
          <mxGeometry x="760" y="1030" width="40" height="40" as="geometry" />
        </mxCell>
        <mxCell id="wQTYGuOmZ5z0KffUW01f-654" value="" style="rounded=0;whiteSpace=wrap;html=1;" vertex="1" parent="1">
          <mxGeometry x="760" y="990" width="40" height="40" as="geometry" />
        </mxCell>
        <mxCell id="wQTYGuOmZ5z0KffUW01f-655" value="" style="rounded=0;whiteSpace=wrap;html=1;" vertex="1" parent="1">
          <mxGeometry x="760" y="950" width="40" height="40" as="geometry" />
        </mxCell>
        <mxCell id="wQTYGuOmZ5z0KffUW01f-656" value="" style="rounded=0;whiteSpace=wrap;html=1;" vertex="1" parent="1">
          <mxGeometry x="760" y="910" width="40" height="40" as="geometry" />
        </mxCell>
        <mxCell id="wQTYGuOmZ5z0KffUW01f-657" value="" style="rounded=0;whiteSpace=wrap;html=1;" vertex="1" parent="1">
          <mxGeometry x="760" y="870" width="40" height="40" as="geometry" />
        </mxCell>
        <mxCell id="wQTYGuOmZ5z0KffUW01f-658" value="" style="rounded=0;whiteSpace=wrap;html=1;" vertex="1" parent="1">
          <mxGeometry x="800" y="1070" width="40" height="40" as="geometry" />
        </mxCell>
        <mxCell id="wQTYGuOmZ5z0KffUW01f-659" value="" style="rounded=0;whiteSpace=wrap;html=1;" vertex="1" parent="1">
          <mxGeometry x="800" y="1030" width="40" height="40" as="geometry" />
        </mxCell>
        <mxCell id="wQTYGuOmZ5z0KffUW01f-660" value="" style="rounded=0;whiteSpace=wrap;html=1;" vertex="1" parent="1">
          <mxGeometry x="800" y="990" width="40" height="40" as="geometry" />
        </mxCell>
        <mxCell id="wQTYGuOmZ5z0KffUW01f-661" value="" style="rounded=0;whiteSpace=wrap;html=1;" vertex="1" parent="1">
          <mxGeometry x="800" y="950" width="40" height="40" as="geometry" />
        </mxCell>
        <mxCell id="wQTYGuOmZ5z0KffUW01f-662" value="" style="rounded=0;whiteSpace=wrap;html=1;" vertex="1" parent="1">
          <mxGeometry x="800" y="910" width="40" height="40" as="geometry" />
        </mxCell>
        <mxCell id="wQTYGuOmZ5z0KffUW01f-663" value="" style="rounded=0;whiteSpace=wrap;html=1;" vertex="1" parent="1">
          <mxGeometry x="800" y="870" width="40" height="40" as="geometry" />
        </mxCell>
        <mxCell id="wQTYGuOmZ5z0KffUW01f-664" value="" style="rounded=0;whiteSpace=wrap;html=1;" vertex="1" parent="1">
          <mxGeometry x="680" y="910" width="40" height="40" as="geometry" />
        </mxCell>
        <mxCell id="wQTYGuOmZ5z0KffUW01f-665" value="C LOCRIO (2b 3b 5b 6b 7b Cm Naturale)&amp;nbsp; -&amp;gt; Db Maggiore (VII)" style="text;html=1;align=center;verticalAlign=middle;whiteSpace=wrap;rounded=0;" vertex="1" parent="1">
          <mxGeometry x="240" y="840" width="600" height="30" as="geometry" />
        </mxCell>
        <mxCell id="wQTYGuOmZ5z0KffUW01f-666" value="" style="rounded=0;whiteSpace=wrap;html=1;" vertex="1" parent="1">
          <mxGeometry x="560" y="950" width="40" height="40" as="geometry" />
        </mxCell>
      </root>
    </mxGraphModel>
  </diagram>
</mxfile>
